<svg version="1.1" viewBox="0.0 0.0 586.1417322834645 401.5774278215223" fill="none" stroke="none" stroke-linecap="square" stroke-miterlimit="10" xmlns:xlink="http://www.w3.org/1999/xlink" xmlns="http://www.w3.org/2000/svg"><clipPath id="p.0"><path d="m0 0l586.1417 0l0 401.57742l-586.1417 0l0 -401.57742z" clip-rule="nonzero"/></clipPath><g clip-path="url(#p.0)"><path fill="#000000" fill-opacity="0.0" d="m0 0l586.1417 0l0 401.57742l-586.1417 0z" fill-rule="evenodd"/><path fill="#ffffff" d="m133.09973 93.9008l0 0c0 -14.977219 12.141434 -27.118652 27.118652 -27.118652l257.6682 0c7.192322 0 14.090057 2.8571396 19.175781 7.942871c5.085724 5.0857315 7.942871 11.983467 7.942871 19.175781l0 108.47136c0 14.977219 -12.141449 27.118652 -27.118652 27.118652l-257.6682 0c-14.977219 0 -27.118652 -12.141434 -27.118652 -27.118652z" fill-rule="evenodd"/><path stroke="#000000" stroke-width="1.0" stroke-linejoin="round" stroke-linecap="butt" d="m133.09973 93.9008l0 0c0 -14.977219 12.141434 -27.118652 27.118652 -27.118652l257.6682 0c7.192322 0 14.090057 2.8571396 19.175781 7.942871c5.085724 5.0857315 7.942871 11.983467 7.942871 19.175781l0 108.47136c0 14.977219 -12.141449 27.118652 -27.118652 27.118652l-257.6682 0c-14.977219 0 -27.118652 -12.141434 -27.118652 -27.118652z" fill-rule="evenodd"/><path fill="#000000" fill-opacity="0.0" d="m220.48425 66.78084l148.6929 0l0 35.244095l-148.6929 0z" fill-rule="evenodd"/><path fill="#000000" d="m250.71457 84.74084l0 -6.671875l2.953125 0q0.90625 0 1.359375 0.1875q0.46875 0.171875 0.75 0.625q0.28125 0.453125 0.28125 1.0q0 0.71875 -0.46875 1.203125q-0.453125 0.484375 -1.421875 0.625q0.359375 0.15625 0.53125 0.328125q0.390625 0.359375 0.734375 0.890625l1.171875 1.8125l-1.125 0l-0.875 -1.390625q-0.390625 -0.59375 -0.640625 -0.90625q-0.25 -0.328125 -0.453125 -0.453125q-0.1875 -0.140625 -0.390625 -0.1875q-0.15625 -0.03125 -0.5 -0.03125l-1.03125 0l0 2.96875l-0.875 0zm0.875 -3.734375l1.90625 0q0.609375 0 0.953125 -0.125q0.34375 -0.125 0.515625 -0.390625q0.171875 -0.28125 0.171875 -0.609375q0 -0.46875 -0.34375 -0.765625q-0.34375 -0.3125 -1.078125 -0.3125l-2.125 0l0 2.203125zm9.048981 2.171875l0.84375 0.109375q-0.1875 0.75 -0.734375 1.15625q-0.546875 0.40625 -1.390625 0.40625q-1.0625 0 -1.6875 -0.65625q-0.609375 -0.65625 -0.609375 -1.828125q0 -1.21875 0.625 -1.890625q0.625 -0.6875 1.625 -0.6875q0.984375 0 1.59375 0.671875q0.609375 0.65625 0.609375 1.859375q0 0.0625 0 0.21875l-3.609375 0q0.046875 0.796875 0.453125 1.21875q0.40625 0.421875 1.015625 0.421875q0.453125 0 0.765625 -0.234375q0.3125 -0.234375 0.5 -0.765625zm-2.6875 -1.328125l2.703125 0q-0.0625 -0.609375 -0.3125 -0.90625q-0.390625 -0.46875 -1.015625 -0.46875q-0.5625 0 -0.953125 0.375q-0.375 0.375 -0.421875 1.0zm7.719116 1.125l0.8125 0.09375q-0.125 0.84375 -0.671875 1.3125q-0.546875 0.46875 -1.34375 0.46875q-0.984375 0 -1.59375 -0.640625q-0.609375 -0.65625 -0.609375 -1.875q0 -0.78125 0.265625 -1.359375q0.265625 -0.59375 0.78125 -0.890625q0.53125 -0.296875 1.15625 -0.296875q0.796875 0 1.296875 0.40625q0.5 0.390625 0.640625 1.125l-0.796875 0.125q-0.109375 -0.484375 -0.40625 -0.71875q-0.28125 -0.25 -0.703125 -0.25q-0.609375 0 -1.0 0.4375q-0.390625 0.4375 -0.390625 1.40625q0 0.96875 0.375 1.421875q0.375 0.4375 0.984375 0.4375q0.46875 0 0.796875 -0.296875q0.328125 -0.296875 0.40625 -0.90625zm4.8203125 0.203125l0.84375 0.109375q-0.1875 0.75 -0.734375 1.15625q-0.546875 0.40625 -1.390625 0.40625q-1.0625 0 -1.6875 -0.65625q-0.609375 -0.65625 -0.609375 -1.828125q0 -1.21875 0.625 -1.890625q0.625 -0.6875 1.625 -0.6875q0.984375 0 1.59375 0.671875q0.609375 0.65625 0.609375 1.859375q0 0.0625 0 0.21875l-3.609375 0q0.046875 0.796875 0.453125 1.21875q0.40625 0.421875 1.015625 0.421875q0.453125 0 0.765625 -0.234375q0.3125 -0.234375 0.5 -0.765625zm-2.6875 -1.328125l2.703125 0q-0.0625 -0.609375 -0.3125 -0.90625q-0.390625 -0.46875 -1.015625 -0.46875q-0.5625 0 -0.953125 0.375q-0.375 0.375 -0.421875 1.0zm4.578491 -2.84375l0 -0.9375l0.8125 0l0 0.9375l-0.8125 0zm0 5.734375l0 -4.84375l0.8125 0l0 4.84375l-0.8125 0zm3.4005432 0l-1.828125 -4.84375l0.859375 0l1.03125 2.90625q0.171875 0.46875 0.3125 0.96875q0.109375 -0.375 0.3125 -0.921875l1.078125 -2.953125l0.84375 0l-1.84375 4.84375l-0.765625 0zm6.6328125 -1.5625l0.84375 0.109375q-0.1875 0.75 -0.734375 1.15625q-0.546875 0.40625 -1.390625 0.40625q-1.0625 0 -1.6875 -0.65625q-0.609375 -0.65625 -0.609375 -1.828125q0 -1.21875 0.625 -1.890625q0.625 -0.6875 1.625 -0.6875q0.984375 0 1.59375 0.671875q0.609375 0.65625 0.609375 1.859375q0 0.0625 0 0.21875l-3.609375 0q0.046875 0.796875 0.453125 1.21875q0.40625 0.421875 1.015625 0.421875q0.453125 0 0.765625 -0.234375q0.3125 -0.234375 0.5 -0.765625zm-2.6875 -1.328125l2.703125 0q-0.0625 -0.609375 -0.3125 -0.90625q-0.390625 -0.46875 -1.015625 -0.46875q-0.5625 0 -0.953125 0.375q-0.375 0.375 -0.421875 1.0zm7.703491 2.890625l0 -0.609375q-0.453125 0.71875 -1.34375 0.71875q-0.578125 0 -1.0625 -0.3125q-0.484375 -0.328125 -0.765625 -0.890625q-0.265625 -0.578125 -0.265625 -1.3125q0 -0.734375 0.234375 -1.3125q0.25 -0.59375 0.734375 -0.90625q0.484375 -0.328125 1.078125 -0.328125q0.4375 0 0.78125 0.1875q0.34375 0.1875 0.5625 0.484375l0 -2.390625l0.8125 0l0 6.671875l-0.765625 0zm-2.59375 -2.40625q0 0.921875 0.390625 1.390625q0.390625 0.453125 0.9375 0.453125q0.53125 0 0.90625 -0.4375q0.375 -0.4375 0.375 -1.34375q0 -1.0 -0.390625 -1.453125q-0.375 -0.46875 -0.9375 -0.46875q-0.546875 0 -0.921875 0.453125q-0.359375 0.4375 -0.359375 1.40625zm8.876526 2.40625l0 -5.890625l-2.203125 0l0 -0.78125l5.296875 0l0 0.78125l-2.21875 0l0 5.890625l-0.875 0zm3.5391235 0l0 -4.84375l0.734375 0l0 0.734375q0.28125 -0.515625 0.515625 -0.671875q0.25 -0.171875 0.53125 -0.171875q0.421875 0 0.84375 0.265625l-0.28125 0.765625q-0.296875 -0.171875 -0.609375 -0.171875q-0.265625 0 -0.484375 0.15625q-0.203125 0.15625 -0.296875 0.453125q-0.140625 0.4375 -0.140625 0.953125l0 2.53125l-0.8125 0zm6.2626038 -0.59375q-0.453125 0.390625 -0.875 0.546875q-0.421875 0.15625 -0.90625 0.15625q-0.796875 0 -1.21875 -0.390625q-0.421875 -0.390625 -0.421875 -1.0q0 -0.34375 0.15625 -0.640625q0.15625 -0.296875 0.421875 -0.46875q0.265625 -0.1875 0.59375 -0.28125q0.234375 -0.0625 0.71875 -0.109375q1.0 -0.125 1.46875 -0.28125q0 -0.171875 0 -0.21875q0 -0.5 -0.234375 -0.703125q-0.3125 -0.28125 -0.921875 -0.28125q-0.578125 0 -0.859375 0.203125q-0.28125 0.203125 -0.40625 0.71875l-0.796875 -0.109375q0.109375 -0.515625 0.359375 -0.828125q0.25 -0.328125 0.71875 -0.5q0.46875 -0.171875 1.09375 -0.171875q0.625 0 1.0 0.15625q0.390625 0.140625 0.578125 0.359375q0.1875 0.21875 0.25 0.5625q0.046875 0.203125 0.046875 0.75l0 1.09375q0 1.140625 0.046875 1.453125q0.0625 0.296875 0.21875 0.578125l-0.859375 0q-0.125 -0.25 -0.171875 -0.59375zm-0.0625 -1.828125q-0.453125 0.171875 -1.34375 0.296875q-0.5 0.078125 -0.71875 0.171875q-0.203125 0.09375 -0.3125 0.265625q-0.109375 0.171875 -0.109375 0.390625q0 0.328125 0.234375 0.546875q0.25 0.21875 0.734375 0.21875q0.46875 0 0.828125 -0.203125q0.375 -0.21875 0.5625 -0.578125q0.125 -0.265625 0.125 -0.8125l0 -0.296875zm2.0941162 2.421875l0 -4.84375l0.75 0l0 0.6875q0.53125 -0.796875 1.53125 -0.796875q0.4375 0 0.796875 0.171875q0.375 0.15625 0.546875 0.40625q0.1875 0.25 0.265625 0.609375q0.046875 0.21875 0.046875 0.796875l0 2.96875l-0.828125 0l0 -2.9375q0 -0.5 -0.09375 -0.75q-0.09375 -0.25 -0.34375 -0.390625q-0.234375 -0.15625 -0.5625 -0.15625q-0.515625 0 -0.90625 0.328125q-0.375 0.328125 -0.375 1.265625l0 2.640625l-0.828125 0zm4.859741 -1.4375l0.8125 -0.140625q0.078125 0.5 0.390625 0.765625q0.3125 0.25 0.859375 0.25q0.578125 0 0.84375 -0.234375q0.28125 -0.234375 0.28125 -0.53125q0 -0.28125 -0.25 -0.4375q-0.171875 -0.109375 -0.84375 -0.28125q-0.890625 -0.234375 -1.25 -0.390625q-0.34375 -0.171875 -0.53125 -0.46875q-0.171875 -0.296875 -0.171875 -0.640625q0 -0.328125 0.140625 -0.59375q0.15625 -0.28125 0.40625 -0.46875q0.203125 -0.140625 0.53125 -0.234375q0.328125 -0.109375 0.703125 -0.109375q0.578125 0 1.0 0.171875q0.4375 0.15625 0.640625 0.4375q0.203125 0.28125 0.28125 0.75l-0.796875 0.109375q-0.0625 -0.375 -0.328125 -0.578125q-0.265625 -0.203125 -0.734375 -0.203125q-0.5625 0 -0.8125 0.1875q-0.234375 0.171875 -0.234375 0.4375q0 0.15625 0.09375 0.28125q0.109375 0.125 0.3125 0.21875q0.125 0.046875 0.734375 0.203125q0.859375 0.234375 1.203125 0.390625q0.34375 0.140625 0.53125 0.421875q0.203125 0.28125 0.203125 0.703125q0 0.40625 -0.234375 0.78125q-0.234375 0.359375 -0.6875 0.5625q-0.453125 0.1875 -1.015625 0.1875q-0.953125 0 -1.453125 -0.390625q-0.484375 -0.390625 -0.625 -1.15625zm8.1484375 0.84375q-0.453125 0.390625 -0.875 0.546875q-0.421875 0.15625 -0.90625 0.15625q-0.796875 0 -1.21875 -0.390625q-0.421875 -0.390625 -0.421875 -1.0q0 -0.34375 0.15625 -0.640625q0.15625 -0.296875 0.421875 -0.46875q0.265625 -0.1875 0.59375 -0.28125q0.234375 -0.0625 0.71875 -0.109375q1.0 -0.125 1.46875 -0.28125q0 -0.171875 0 -0.21875q0 -0.5 -0.234375 -0.703125q-0.3125 -0.28125 -0.921875 -0.28125q-0.578125 0 -0.859375 0.203125q-0.28125 0.203125 -0.40625 0.71875l-0.796875 -0.109375q0.109375 -0.515625 0.359375 -0.828125q0.25 -0.328125 0.71875 -0.5q0.46875 -0.171875 1.09375 -0.171875q0.625 0 1.0 0.15625q0.390625 0.140625 0.578125 0.359375q0.1875 0.21875 0.25 0.5625q0.046875 0.203125 0.046875 0.75l0 1.09375q0 1.140625 0.046875 1.453125q0.0625 0.296875 0.21875 0.578125l-0.859375 0q-0.125 -0.25 -0.171875 -0.59375zm-0.0625 -1.828125q-0.453125 0.171875 -1.34375 0.296875q-0.5 0.078125 -0.71875 0.171875q-0.203125 0.09375 -0.3125 0.265625q-0.109375 0.171875 -0.109375 0.390625q0 0.328125 0.234375 0.546875q0.25 0.21875 0.734375 0.21875q0.46875 0 0.828125 -0.203125q0.375 -0.21875 0.5625 -0.578125q0.125 -0.265625 0.125 -0.8125l0 -0.296875zm5.250366 0.65625l0.8125 0.09375q-0.125 0.84375 -0.671875 1.3125q-0.546875 0.46875 -1.34375 0.46875q-0.984375 0 -1.59375 -0.640625q-0.609375 -0.65625 -0.609375 -1.875q0 -0.78125 0.265625 -1.359375q0.265625 -0.59375 0.78125 -0.890625q0.53125 -0.296875 1.15625 -0.296875q0.796875 0 1.296875 0.40625q0.5 0.390625 0.640625 1.125l-0.796875 0.125q-0.109375 -0.484375 -0.40625 -0.71875q-0.28125 -0.25 -0.703125 -0.25q-0.609375 0 -1.0 0.4375q-0.390625 0.4375 -0.390625 1.40625q0 0.96875 0.375 1.421875q0.375 0.4375 0.984375 0.4375q0.46875 0 0.796875 -0.296875q0.328125 -0.296875 0.40625 -0.90625zm3.3046875 1.03125l0.109375 0.71875q-0.34375 0.078125 -0.609375 0.078125q-0.453125 0 -0.703125 -0.140625q-0.234375 -0.140625 -0.34375 -0.359375q-0.09375 -0.234375 -0.09375 -0.984375l0 -2.78125l-0.609375 0l0 -0.640625l0.609375 0l0 -1.1875l0.8125 -0.5l0 1.6875l0.828125 0l0 0.640625l-0.828125 0l0 2.828125q0 0.359375 0.046875 0.46875q0.046875 0.09375 0.140625 0.15625q0.09375 0.046875 0.28125 0.046875q0.140625 0 0.359375 -0.03125zm0.8103943 -5.0l0 -0.9375l0.8125 0l0 0.9375l-0.8125 0zm0 5.734375l0 -4.84375l0.8125 0l0 4.84375l-0.8125 0zm1.7599182 -2.421875q0 -1.34375 0.75 -1.984375q0.625 -0.546875 1.515625 -0.546875q1.0 0 1.625 0.65625q0.640625 0.65625 0.640625 1.8125q0 0.9375 -0.28125 1.46875q-0.28125 0.53125 -0.8125 0.828125q-0.53125 0.296875 -1.171875 0.296875q-1.015625 0 -1.640625 -0.640625q-0.625 -0.65625 -0.625 -1.890625zm0.84375 0q0 0.9375 0.40625 1.40625q0.40625 0.453125 1.015625 0.453125q0.609375 0 1.015625 -0.46875q0.40625 -0.46875 0.40625 -1.421875q0 -0.890625 -0.40625 -1.34375q-0.40625 -0.46875 -1.015625 -0.46875q-0.609375 0 -1.015625 0.46875q-0.40625 0.453125 -0.40625 1.375zm4.640991 2.421875l0 -4.84375l0.75 0l0 0.6875q0.53125 -0.796875 1.53125 -0.796875q0.4375 0 0.796875 0.171875q0.375 0.15625 0.546875 0.40625q0.1875 0.25 0.265625 0.609375q0.046875 0.21875 0.046875 0.796875l0 2.96875l-0.828125 0l0 -2.9375q0 -0.5 -0.09375 -0.75q-0.09375 -0.25 -0.34375 -0.390625q-0.234375 -0.15625 -0.5625 -0.15625q-0.515625 0 -0.90625 0.328125q-0.375 0.328125 -0.375 1.265625l0 2.640625l-0.828125 0z" fill-rule="nonzero"/><path fill="#cfe2f3" d="m152.95604 116.022125l0 0c0 -2.4614105 1.9953613 -4.4567795 4.456772 -4.4567795l99.24393 0c1.1820068 0 2.3156128 0.4695511 3.1514282 1.3053589c0.8357849 0.8358154 1.3053589 1.9694138 1.3053589 3.1514206l0 17.8266c0 2.4614105 -1.9953918 4.456787 -4.456787 4.456787l-99.24393 0c-2.4614105 0 -4.456772 -1.9953766 -4.456772 -4.456787z" fill-rule="evenodd"/><path stroke="#000000" stroke-width="1.0" stroke-linejoin="round" stroke-linecap="butt" d="m152.95604 116.022125l0 0c0 -2.4614105 1.9953613 -4.4567795 4.456772 -4.4567795l99.24393 0c1.1820068 0 2.3156128 0.4695511 3.1514282 1.3053589c0.8357849 0.8358154 1.3053589 1.9694138 1.3053589 3.1514206l0 17.8266c0 2.4614105 -1.9953918 4.456787 -4.456787 4.456787l-99.24393 0c-2.4614105 0 -4.456772 -1.9953766 -4.456772 -4.456787z" fill-rule="evenodd"/><path fill="#000000" d="m195.29659 128.39543l0 -6.6718826l0.90625 0l3.515625 5.234375l0 -5.234375l0.84375 0l0 6.6718826l-0.90625 0l-3.5 -5.2500076l0 5.2500076l-0.859375 0zm9.798981 -0.5937576q-0.453125 0.39063263 -0.875 0.5468826q-0.421875 0.15625 -0.90625 0.15625q-0.796875 0 -1.21875 -0.390625q-0.421875 -0.39063263 -0.421875 -1.0000076q0 -0.34375 0.15625 -0.640625q0.15625 -0.296875 0.421875 -0.46875q0.265625 -0.1875 0.59375 -0.28125q0.234375 -0.0625 0.71875 -0.109375q1.0 -0.125 1.46875 -0.28125q0 -0.171875 0 -0.21875q0 -0.5 -0.234375 -0.703125q-0.3125 -0.28125 -0.921875 -0.28125q-0.578125 0 -0.859375 0.203125q-0.28125 0.203125 -0.40625 0.71875l-0.796875 -0.109375q0.109375 -0.515625 0.359375 -0.828125q0.25 -0.328125 0.71875 -0.5q0.46875 -0.171875 1.09375 -0.171875q0.625 0 1.0 0.15625q0.390625 0.140625 0.578125 0.359375q0.1875 0.21875 0.25 0.5625q0.046875 0.203125 0.046875 0.75l0 1.09375q0 1.140625 0.046875 1.453125q0.0625 0.29688263 0.21875 0.5781326l-0.859375 0q-0.125 -0.25 -0.171875 -0.5937576zm-0.0625 -1.828125q-0.453125 0.171875 -1.34375 0.296875q-0.5 0.078125 -0.71875 0.171875q-0.203125 0.09375 -0.3125 0.265625q-0.109375 0.171875 -0.109375 0.390625q0 0.328125 0.234375 0.546875q0.25 0.21875 0.734375 0.21875q0.46875 0 0.828125 -0.203125q0.375 -0.21875 0.5625 -0.578125q0.125 -0.265625 0.125 -0.8125l0 -0.296875zm2.0941162 2.4218826l0 -4.8437576l0.734375 0l0 0.6875q0.234375 -0.359375 0.609375 -0.578125q0.375 -0.21875 0.859375 -0.21875q0.546875 0 0.890625 0.234375q0.34375 0.21875 0.484375 0.625q0.5625 -0.859375 1.484375 -0.859375q0.71875 0 1.109375 0.40625q0.390625 0.390625 0.390625 1.21875l0 3.3281326l-0.8125 0l0 -3.0468826q0 -0.484375 -0.09375 -0.703125q-0.078125 -0.21875 -0.28125 -0.34375q-0.203125 -0.140625 -0.484375 -0.140625q-0.515625 0 -0.859375 0.34375q-0.328125 0.328125 -0.328125 1.078125l0 2.8125076l-0.828125 0l0 -3.1406326q0 -0.546875 -0.203125 -0.8125q-0.1875 -0.28125 -0.65625 -0.28125q-0.34375 0 -0.640625 0.1875q-0.28125 0.171875 -0.421875 0.53125q-0.125 0.34375 -0.125 1.0l0 2.5156326l-0.828125 0zm11.082901 -1.5625076l0.84375 0.109375q-0.1875 0.75 -0.734375 1.1562576q-0.546875 0.40625 -1.390625 0.40625q-1.0625 0 -1.6875 -0.6562576q-0.609375 -0.65625 -0.609375 -1.828125q0 -1.21875 0.625 -1.890625q0.625 -0.6875 1.625 -0.6875q0.984375 0 1.59375 0.671875q0.609375 0.65625 0.609375 1.859375q0 0.0625 0 0.21875l-3.609375 0q0.046875 0.796875 0.453125 1.21875q0.40625 0.421875 1.015625 0.421875q0.453125 0 0.765625 -0.234375q0.3125 -0.234375 0.5 -0.765625zm-2.6875 -1.328125l2.703125 0q-0.0625 -0.609375 -0.3125 -0.90625q-0.390625 -0.46875 -1.015625 -0.46875q-0.5625 0 -0.953125 0.375q-0.375 0.375 -0.421875 1.0z" fill-rule="nonzero"/><path fill="#cfe2f3" d="m323.36285 115.99063l0 0c0 -2.4614105 1.9953613 -4.4567795 4.456787 -4.4567795l99.24393 0c1.1820068 0 2.3156128 0.4695511 3.1513977 1.3053589c0.8358154 0.8358078 1.3053589 1.9694138 1.3053589 3.1514206l0 17.8266c0 2.4614105 -1.9953613 4.456772 -4.4567566 4.456772l-99.24393 0c-2.4614258 0 -4.456787 -1.9953613 -4.456787 -4.456772z" fill-rule="evenodd"/><path stroke="#000000" stroke-width="1.0" stroke-linejoin="round" stroke-linecap="butt" d="m323.36285 115.99063l0 0c0 -2.4614105 1.9953613 -4.4567795 4.456787 -4.4567795l99.24393 0c1.1820068 0 2.3156128 0.4695511 3.1513977 1.3053589c0.8358154 0.8358078 1.3053589 1.9694138 1.3053589 3.1514206l0 17.8266c0 2.4614105 -1.9953613 4.456772 -4.4567566 4.456772l-99.24393 0c-2.4614258 0 -4.456787 -1.9953613 -4.456787 -4.456772z" fill-rule="evenodd"/><path fill="#000000" d="m361.82474 128.36392l0 -6.6718674l2.515625 0q0.671875 0 1.015625 0.0625q0.5 0.078125 0.828125 0.3125q0.328125 0.21875 0.53125 0.640625q0.203125 0.40625 0.203125 0.90625q0 0.859375 -0.546875 1.453125q-0.53125 0.578125 -1.953125 0.578125l-1.703125 0l0 2.7187424l-0.890625 0zm0.890625 -3.4999924l1.71875 0q0.859375 0 1.21875 -0.3125q0.359375 -0.328125 0.359375 -0.90625q0 -0.421875 -0.21875 -0.71875q-0.203125 -0.296875 -0.546875 -0.390625q-0.234375 -0.0625 -0.828125 -0.0625l-1.703125 0l0 2.390625zm8.393646 3.4999924l0 -0.7031174q-0.5625 0.8124924 -1.53125 0.8124924q-0.421875 0 -0.796875 -0.15625q-0.375 -0.171875 -0.5625 -0.42186737q-0.171875 -0.25 -0.25 -0.609375q-0.046875 -0.234375 -0.046875 -0.765625l0 -3.0l0.828125 0l0 2.6875q0 0.640625 0.046875 0.875q0.078125 0.3125 0.328125 0.5q0.25 0.1875 0.609375 0.1875q0.375 0 0.703125 -0.1875q0.328125 -0.1875 0.453125 -0.515625q0.140625 -0.328125 0.140625 -0.953125l0 -2.59375l0.8125 0l0 4.8437424l-0.734375 0zm2.7816162 0l-0.765625 0l0 -6.6718674l0.828125 0l0 2.375q0.515625 -0.65625 1.3125 -0.65625q0.453125 0 0.84375 0.1875q0.40625 0.171875 0.65625 0.5q0.265625 0.328125 0.40625 0.796875q0.15625 0.453125 0.15625 0.984375q0 1.234375 -0.625 1.921875q-0.609375 0.6718674 -1.46875 0.6718674q-0.859375 0 -1.34375 -0.7187424l0 0.6093674zm-0.015625 -2.4531174q0 0.875 0.234375 1.25q0.390625 0.640625 1.046875 0.640625q0.546875 0 0.9375 -0.46875q0.390625 -0.46875 0.390625 -1.390625q0 -0.953125 -0.375 -1.390625q-0.375 -0.453125 -0.90625 -0.453125q-0.546875 0 -0.9375 0.46875q-0.390625 0.453125 -0.390625 1.34375zm4.515991 2.4531174l0 -6.6718674l0.875 0l0 3.3125l3.3125 -3.3125l1.203125 0l-2.796875 2.703125l2.921875 3.9687424l-1.171875 0l-2.375 -3.3749924l-1.09375 1.0625l0 2.3124924l-0.875 0zm9.456177 -1.5624924l0.84375 0.109375q-0.1875 0.75 -0.734375 1.1562424q-0.546875 0.40625 -1.390625 0.40625q-1.0625 0 -1.6875 -0.6562424q-0.609375 -0.65625 -0.609375 -1.828125q0 -1.21875 0.625 -1.890625q0.625 -0.6875 1.625 -0.6875q0.984375 0 1.59375 0.671875q0.609375 0.65625 0.609375 1.859375q0 0.0625 0 0.21875l-3.609375 0q0.046875 0.796875 0.453125 1.21875q0.40625 0.421875 1.015625 0.421875q0.453125 0 0.765625 -0.234375q0.3125 -0.234375 0.5 -0.765625zm-2.6875 -1.328125l2.703125 0q-0.0625 -0.609375 -0.3125 -0.90625q-0.390625 -0.46875 -1.015625 -0.46875q-0.5625 0 -0.953125 0.375q-0.375 0.375 -0.421875 1.0zm4.531616 4.7499924l-0.09375 -0.765625q0.265625 0.078125 0.46875 0.078125q0.28125 0 0.4375 -0.09375q0.171875 -0.09375 0.265625 -0.265625q0.078125 -0.109375 0.25 -0.609375q0.03125 -0.0625 0.078125 -0.1875l-1.828125 -4.8593674l0.875 0l1.015625 2.8125q0.1875 0.53125 0.34375 1.109375q0.140625 -0.5625 0.34375 -1.09375l1.03125 -2.828125l0.8125 0l-1.84375 4.9218674q-0.28125 0.796875 -0.453125 1.09375q-0.21875 0.40625 -0.5 0.59375q-0.28125 0.203125 -0.671875 0.203125q-0.234375 0 -0.53125 -0.109375z" fill-rule="nonzero"/><path fill="#cfe2f3" d="m240.75394 162.31346l0 0c0 -2.4614105 1.9953613 -4.456772 4.456772 -4.456772l99.24391 0c1.1820374 0 2.3156128 0.46954346 3.1514282 1.3053589c0.8358154 0.8358002 1.3053589 1.9694061 1.3053589 3.151413l0 17.8266c0 2.4614105 -1.9953613 4.456787 -4.456787 4.456787l-99.24391 0c-2.4614105 0 -4.456772 -1.9953766 -4.456772 -4.456787z" fill-rule="evenodd"/><path stroke="#000000" stroke-width="1.0" stroke-linejoin="round" stroke-linecap="butt" d="m240.75394 162.31346l0 0c0 -2.4614105 1.9953613 -4.456772 4.456772 -4.456772l99.24391 0c1.1820374 0 2.3156128 0.46954346 3.1514282 1.3053589c0.8358154 0.8358002 1.3053589 1.9694061 1.3053589 3.151413l0 17.8266c0 2.4614105 -1.9953613 4.456787 -4.456787 4.456787l-99.24391 0c-2.4614105 0 -4.456772 -1.9953766 -4.456772 -4.456787z" fill-rule="evenodd"/><path fill="#000000" d="m288.51352 172.54614l0.828125 -0.078125q0.0625 0.5 0.28125 0.828125q0.21875 0.3125 0.671875 0.515625q0.453125 0.203125 1.015625 0.203125q0.515625 0 0.890625 -0.15625q0.390625 -0.15625 0.578125 -0.40625q0.1875 -0.265625 0.1875 -0.578125q0 -0.3125 -0.1875 -0.546875q-0.171875 -0.234375 -0.59375 -0.390625q-0.265625 -0.109375 -1.1875 -0.328125q-0.921875 -0.21875 -1.28125 -0.421875q-0.484375 -0.25 -0.71875 -0.609375q-0.234375 -0.375 -0.234375 -0.84375q0 -0.5 0.28125 -0.9375q0.296875 -0.4375 0.84375 -0.671875q0.546875 -0.234375 1.234375 -0.234375q0.734375 0 1.296875 0.25q0.578125 0.234375 0.875 0.703125q0.3125 0.453125 0.328125 1.046875l-0.84375 0.0625q-0.0625 -0.625 -0.46875 -0.953125q-0.390625 -0.328125 -1.15625 -0.328125q-0.796875 0 -1.171875 0.296875q-0.359375 0.296875 -0.359375 0.703125q0 0.359375 0.25 0.59375q0.265625 0.234375 1.328125 0.484375q1.078125 0.234375 1.484375 0.421875q0.578125 0.265625 0.859375 0.6875q0.28125 0.40625 0.28125 0.9375q0 0.53125 -0.3125 1.015625q-0.296875 0.46875 -0.875 0.734375q-0.5625 0.25 -1.28125 0.25q-0.90625 0 -1.515625 -0.265625q-0.609375 -0.265625 -0.96875 -0.78125q-0.34375 -0.53125 -0.359375 -1.203125zm6.4248962 -3.59375l0 -0.9375l0.8125 0l0 0.9375l-0.8125 0zm0 5.734375l0 -4.84375l0.8125 0l0 4.84375l-0.8125 0zm1.9161682 0.40625l0.796875 0.109375q0.046875 0.375 0.28125 0.546875q0.296875 0.21875 0.828125 0.21875q0.5625 0 0.875 -0.234375q0.3125 -0.21875 0.421875 -0.625q0.0625 -0.25 0.0625 -1.0625q-0.546875 0.640625 -1.34375 0.640625q-1.0 0 -1.546875 -0.71875q-0.546875 -0.71875 -0.546875 -1.734375q0 -0.6875 0.25 -1.265625q0.25 -0.59375 0.71875 -0.90625q0.484375 -0.328125 1.125 -0.328125q0.859375 0 1.421875 0.703125l0 -0.59375l0.75 0l0 4.1875q0 1.125 -0.234375 1.59375q-0.21875 0.484375 -0.71875 0.75q-0.5 0.28125 -1.234375 0.28125q-0.859375 0 -1.390625 -0.390625q-0.53125 -0.390625 -0.515625 -1.171875zm0.671875 -2.90625q0 0.953125 0.375 1.390625q0.390625 0.4375 0.953125 0.4375q0.5625 0 0.9375 -0.4375q0.390625 -0.4375 0.390625 -1.375q0 -0.875 -0.390625 -1.328125q-0.390625 -0.453125 -0.953125 -0.453125q-0.546875 0 -0.9375 0.453125q-0.375 0.4375 -0.375 1.3125z" fill-rule="nonzero"/><path fill="#93c47d" d="m255.79134 248.15749l78.07875 0l0 30.204727l-78.07875 0z" fill-rule="evenodd"/><path stroke="#000000" stroke-width="1.0" stroke-linejoin="round" stroke-linecap="butt" d="m255.79134 248.15749l78.07875 0l0 30.204727l-78.07875 0z" fill-rule="evenodd"/><path fill="#000000" d="m280.62854 268.33984l-4.0625 -10.484375l1.5 0l2.734375 7.609375q0.328125 0.921875 0.546875 1.71875q0.25 -0.859375 0.5625 -1.71875l2.84375 -7.609375l1.40625 0l-4.109375 10.484375l-1.421875 0zm11.013214 -2.453125l1.328125 0.171875q-0.3125 1.171875 -1.171875 1.8125q-0.84375 0.640625 -2.171875 0.640625q-1.671875 0 -2.65625 -1.015625q-0.96875 -1.03125 -0.96875 -2.890625q0 -1.921875 0.984375 -2.96875q1.0 -1.0625 2.578125 -1.0625q1.515625 0 2.484375 1.03125q0.96875 1.03125 0.96875 2.921875q0 0.109375 -0.015625 0.34375l-5.65625 0q0.0625 1.25 0.703125 1.921875q0.640625 0.65625 1.59375 0.65625q0.703125 0 1.203125 -0.359375q0.5 -0.375 0.796875 -1.203125zm-4.234375 -2.078125l4.25 0q-0.09375 -0.953125 -0.484375 -1.4375q-0.625 -0.75 -1.609375 -0.75q-0.875 0 -1.484375 0.59375q-0.609375 0.59375 -0.671875 1.59375zm7.166748 4.53125l0 -7.59375l1.15625 0l0 1.140625q0.453125 -0.796875 0.828125 -1.046875q0.375 -0.265625 0.8125 -0.265625q0.65625 0 1.328125 0.40625l-0.4375 1.203125q-0.46875 -0.28125 -0.953125 -0.28125q-0.421875 0 -0.765625 0.25q-0.328125 0.25 -0.46875 0.703125q-0.21875 0.6875 -0.21875 1.5l0 3.984375l-1.28125 0zm4.8962708 -9.015625l0 -1.46875l1.296875 0l0 1.46875l-1.296875 0zm0 9.015625l0 -7.59375l1.296875 0l0 7.59375l-1.296875 0zm3.568634 0l0 -6.59375l-1.140625 0l0 -1.0l1.140625 0l0 -0.8125q0 -0.765625 0.125 -1.140625q0.1875 -0.5 0.65625 -0.8125q0.46875 -0.3125 1.3125 -0.3125q0.546875 0 1.203125 0.125l-0.1875 1.125q-0.40625 -0.0625 -0.765625 -0.0625q-0.578125 0 -0.828125 0.25q-0.234375 0.25 -0.234375 0.9375l0 0.703125l1.46875 0l0 1.0l-1.46875 0l0 6.59375l-1.28125 0zm3.696991 2.921875l-0.140625 -1.203125q0.421875 0.109375 0.734375 0.109375q0.4375 0 0.6875 -0.140625q0.265625 -0.140625 0.421875 -0.40625q0.125 -0.1875 0.390625 -0.953125q0.046875 -0.109375 0.125 -0.3125l-2.890625 -7.609375l1.390625 0l1.578125 4.390625q0.3125 0.84375 0.546875 1.765625q0.234375 -0.890625 0.53125 -1.734375l1.625 -4.421875l1.296875 0l-2.890625 7.71875q-0.46875 1.25 -0.734375 1.734375q-0.34375 0.625 -0.78125 0.921875q-0.4375 0.296875 -1.0625 0.296875q-0.375 0 -0.828125 -0.15625z" fill-rule="nonzero"/><path fill="#000000" fill-opacity="0.0" d="m207.03477 138.30551c0 62.472427 24.377945 124.944885 48.755905 124.944885" fill-rule="evenodd"/><path stroke="#000000" stroke-width="1.0" stroke-linejoin="round" stroke-linecap="butt" d="m207.03477 138.30551c0 31.236221 6.0944977 62.472443 15.236221 85.8996c4.570862 11.713593 9.903549 21.474915 15.617126 28.30783c2.8567963 3.4164581 5.8088074 6.10083 8.808441 7.9310913c0.7499237 0.45755005 1.5027924 0.86172485 2.2579193 1.2106323c0.18876648 0.08718872 0.37768555 0.17095947 0.56674194 0.25125122c0.09451294 0.040130615 0.18907166 0.07940674 0.28364563 0.11779785l0.1040802 0.041259766" fill-rule="evenodd"/><path fill="#000000" stroke="#000000" stroke-width="1.0" stroke-linecap="butt" d="m249.58261 263.68417l4.7749786 -0.7225952l-4.1223145 -2.5157776z" fill-rule="evenodd"/><path fill="#000000" fill-opacity="0.0" d="m294.83267 184.59685c0 15.890076 0.01574707 23.835281 0.03149414 31.780151c0.01574707 7.9448853 0.03149414 15.88945 0.03149414 31.7789" fill-rule="evenodd"/><path stroke="#000000" stroke-width="1.0" stroke-linejoin="round" stroke-linecap="butt" d="m294.83267 184.59685c0 15.890076 0.01574707 23.835281 0.03149414 31.780167c0.007873535 3.9724426 0.01574707 7.9447937 0.02166748 12.910217c0.002960205 2.482727 0.0054016113 5.2137146 0.0071411133 8.317093l0.001159668 4.5515747" fill-rule="evenodd"/><path fill="#000000" stroke="#000000" stroke-width="1.0" stroke-linecap="butt" d="m293.2424 242.15633l1.6528931 4.537674l1.6505737 -4.5385284z" fill-rule="evenodd"/><path fill="#cfe2f3" d="m32.422768 102.65101l0 0c0 -2.4614105 1.995369 -4.4567795 4.4567833 -4.4567795l69.16518 0c1.1820145 0 2.3156128 0.4695511 3.1514206 1.3053589c0.8358078 0.8358078 1.3053665 1.9694061 1.3053665 3.1514206l0 17.826591c0 2.4614105 -1.995369 4.4567795 -4.456787 4.4567795l-69.16518 0c-2.4614143 0 -4.4567833 -1.995369 -4.4567833 -4.4567795z" fill-rule="evenodd"/><path stroke="#000000" stroke-width="1.0" stroke-linejoin="round" stroke-linecap="butt" d="m32.422768 102.65101l0 0c0 -2.4614105 1.995369 -4.4567795 4.4567833 -4.4567795l69.16518 0c1.1820145 0 2.3156128 0.4695511 3.1514206 1.3053589c0.8358078 0.8358078 1.3053665 1.9694061 1.3053665 3.1514206l0 17.826591c0 2.4614105 -1.995369 4.4567795 -4.456787 4.4567795l-69.16518 0c-2.4614143 0 -4.4567833 -1.995369 -4.4567833 -4.4567795z" fill-rule="evenodd"/><path fill="#000000" d="m56.64506 112.3993l0 -0.78125l2.828125 0l0 2.484375q-0.65625 0.515625 -1.34375 0.78125q-0.6875 0.25 -1.421875 0.25q-0.984375 0 -1.796875 -0.421875q-0.796875 -0.421875 -1.203125 -1.21875q-0.40625 -0.796875 -0.40625 -1.78125q0 -0.96875 0.40625 -1.8125q0.40625 -0.84375 1.171875 -1.25q0.765625 -0.421875 1.765625 -0.421875q0.71875 0 1.296875 0.234375q0.59375 0.234375 0.921875 0.65625q0.34375 0.421875 0.515625 1.09375l-0.796875 0.21875q-0.15625 -0.5 -0.390625 -0.796875q-0.21875 -0.296875 -0.640625 -0.46875q-0.40625 -0.171875 -0.90625 -0.171875q-0.609375 0 -1.046875 0.1875q-0.4375 0.171875 -0.71875 0.484375q-0.265625 0.296875 -0.421875 0.65625q-0.25 0.625 -0.25 1.34375q0 0.890625 0.296875 1.5q0.3125 0.59375 0.90625 0.890625q0.59375 0.28125 1.25 0.28125q0.578125 0 1.125 -0.21875q0.546875 -0.21875 0.828125 -0.46875l0 -1.25l-1.96875 0zm7.333847 1.0625l0.8437462 0.109375q-0.1875 0.75 -0.734375 1.15625q-0.5468712 0.40625 -1.3906212 0.40625q-1.0625 0 -1.6875 -0.65625q-0.609375 -0.65625 -0.609375 -1.828125q0 -1.21875 0.625 -1.890625q0.625 -0.6875 1.625 -0.6875q0.984375 0 1.5937462 0.671875q0.609375 0.65625 0.609375 1.859375q0 0.0625 0 0.21875l-3.6093712 0q0.046875 0.796875 0.453125 1.21875q0.40625 0.421875 1.015625 0.421875q0.453125 0 0.765625 -0.234375q0.3125 -0.234375 0.5 -0.765625zm-2.6875 -1.328125l2.703125 0q-0.0625 -0.609375 -0.3125 -0.90625q-0.390625 -0.46875 -1.015625 -0.46875q-0.5625 0 -0.953125 0.375q-0.375 0.375 -0.421875 1.0zm6.3597374 2.15625l0.109375 0.71875q-0.34375 0.078125 -0.609375 0.078125q-0.453125 0 -0.703125 -0.140625q-0.234375 -0.140625 -0.34375 -0.359375q-0.09375 -0.234375 -0.09375 -0.984375l0 -2.78125l-0.609375 0l0 -0.640625l0.609375 0l0 -1.1875l0.8125 -0.5l0 1.6875l0.828125 0l0 0.640625l-0.828125 0l0 2.828125q0 0.359375 0.046875 0.46875q0.046875 0.09375 0.140625 0.15625q0.09375 0.046875 0.28125 0.046875q0.140625 0 0.359375 -0.03125zm7.870819 -5.9375l0.890625 0l0 3.859375q0 1.0 -0.234375 1.59375q-0.21875 0.59375 -0.8125 0.96875q-0.59375 0.359375 -1.5625 0.359375q-0.9375 0 -1.53125 -0.3125q-0.59375 -0.328125 -0.859375 -0.9375q-0.25 -0.625 -0.25 -1.671875l0 -3.859375l0.875 0l0 3.84375q0 0.875 0.15625 1.296875q0.171875 0.40625 0.5625 0.625q0.40625 0.21875 0.96875 0.21875q0.96875 0 1.375 -0.4375q0.421875 -0.4375 0.421875 -1.703125l0 -3.84375zm1.9239807 5.234375l0.8125 -0.140625q0.078125 0.5 0.390625 0.765625q0.3125 0.25 0.859375 0.25q0.578125 0 0.84375 -0.234375q0.28125 -0.234375 0.28125 -0.53125q0 -0.28125 -0.25 -0.4375q-0.171875 -0.109375 -0.84375 -0.28125q-0.890625 -0.234375 -1.25 -0.390625q-0.34375 -0.171875 -0.53125 -0.46875q-0.171875 -0.296875 -0.171875 -0.640625q0 -0.328125 0.140625 -0.59375q0.15625 -0.28125 0.40625 -0.46875q0.203125 -0.140625 0.53125 -0.234375q0.328125 -0.109375 0.703125 -0.109375q0.578125 0 1.0 0.171875q0.4375 0.15625 0.640625 0.4375q0.203125 0.28125 0.28125 0.75l-0.796875 0.109375q-0.0625 -0.375 -0.328125 -0.578125q-0.265625 -0.203125 -0.734375 -0.203125q-0.5625 0 -0.8125 0.1875q-0.234375 0.171875 -0.234375 0.4375q0 0.15625 0.09375 0.28125q0.109375 0.125 0.3125 0.21875q0.125 0.046875 0.734375 0.203125q0.859375 0.234375 1.203125 0.390625q0.34375 0.140625 0.53125 0.421875q0.203125 0.28125 0.203125 0.703125q0 0.40625 -0.234375 0.78125q-0.234375 0.359375 -0.6875 0.5625q-0.453125 0.1875 -1.015625 0.1875q-0.953125 0 -1.453125 -0.390625q-0.484375 -0.390625 -0.625 -1.15625zm8.3046875 -0.125l0.84375 0.109375q-0.1875 0.75 -0.734375 1.15625q-0.546875 0.40625 -1.390625 0.40625q-1.0625 0 -1.6875 -0.65625q-0.609375 -0.65625 -0.609375 -1.828125q0 -1.21875 0.625 -1.890625q0.625 -0.6875 1.625 -0.6875q0.984375 0 1.59375 0.671875q0.609375 0.65625 0.609375 1.859375q0 0.0625 0 0.21875l-3.609375 0q0.046875 0.796875 0.453125 1.21875q0.40625 0.421875 1.015625 0.421875q0.453125 0 0.765625 -0.234375q0.3125 -0.234375 0.5 -0.765625zm-2.6875 -1.328125l2.703125 0q-0.0625 -0.609375 -0.3125 -0.90625q-0.390625 -0.46875 -1.015625 -0.46875q-0.5625 0 -0.953125 0.375q-0.375 0.375 -0.421875 1.0zm4.562866 2.890625l0 -4.84375l0.734375 0l0 0.734375q0.28125 -0.515625 0.515625 -0.671875q0.25 -0.171875 0.53125 -0.171875q0.421875 0 0.84375 0.265625l-0.28125 0.765625q-0.296875 -0.171875 -0.609375 -0.171875q-0.265625 0 -0.484375 0.15625q-0.203125 0.15625 -0.296875 0.453125q-0.140625 0.4375 -0.140625 0.953125l0 2.53125l-0.8125 0z" fill-rule="nonzero"/><path fill="#000000" fill-opacity="0.0" d="m152.95604 124.935425c-10.613541 0 -15.919998 -3.3464584 -21.227081 -6.6929092c-5.307083 -3.3464584 -10.614807 -6.692917 -21.229614 -6.692917" fill-rule="evenodd"/><path stroke="#000000" stroke-width="1.0" stroke-linejoin="round" stroke-linecap="butt" d="m152.95604 124.93543c-10.613541 0 -15.919998 -3.3464584 -21.227081 -6.692917c-2.653534 -1.6732254 -5.307251 -3.3464584 -8.624413 -4.6013794c-1.658577 -0.62745667 -3.4830322 -1.1503448 -5.556259 -1.516365c-0.25915527 -0.04574585 -0.5221939 -0.08905029 -0.78928375 -0.12979126l-0.27336884 -0.04009247" fill-rule="evenodd"/><path fill="#000000" stroke="#000000" stroke-width="1.0" stroke-linecap="butt" d="m116.59721 110.30693l-4.639305 1.341423l4.4161606 1.9544983z" fill-rule="evenodd"/><path fill="#dd7e6b" d="m23.643045 150.01321l0 0c0 -2.4614105 1.995369 -4.456787 4.4567814 -4.456787l69.16518 0c1.1820145 0 2.3156128 0.46955872 3.1514206 1.3053589c0.8358154 0.8358154 1.3053665 1.9694214 1.3053665 3.1514282l0 17.8266c0 2.4614105 -1.995369 4.456772 -4.456787 4.456772l-69.16518 0c-2.4614124 0 -4.4567814 -1.9953613 -4.4567814 -4.456772z" fill-rule="evenodd"/><path stroke="#000000" stroke-width="1.0" stroke-linejoin="round" stroke-linecap="butt" d="m23.643045 150.01321l0 0c0 -2.4614105 1.995369 -4.456787 4.4567814 -4.456787l69.16518 0c1.1820145 0 2.3156128 0.46955872 3.1514206 1.3053589c0.8358154 0.8358154 1.3053665 1.9694214 1.3053665 3.1514282l0 17.8266c0 2.4614105 -1.995369 4.456772 -4.456787 4.456772l-69.16518 0c-2.4614124 0 -4.4567814 -1.9953613 -4.4567814 -4.456772z" fill-rule="evenodd"/><path fill="#ffffff" d="m41.36527 156.8865l0 -6.671875l2.515625 0q0.671875 0 1.015625 0.0625q0.5 0.078125 0.828125 0.3125q0.328125 0.21875 0.53125 0.640625q0.203125 0.40625 0.203125 0.90625q0 0.859375 -0.546875 1.453125q-0.53125 0.578125 -1.953125 0.578125l-1.703125 0l0 2.71875l-0.890625 0zm0.890625 -3.5l1.71875 0q0.859375 0 1.21875 -0.3125q0.359375 -0.328125 0.359375 -0.90625q0 -0.421875 -0.21875 -0.71875q-0.203125 -0.296875 -0.546875 -0.390625q-0.234375 -0.0625 -0.828125 -0.0625l-1.703125 0l0 2.390625zm8.3936615 3.5l0 -0.703125q-0.5625 0.8125 -1.53125 0.8125q-0.421875 0 -0.796875 -0.15625q-0.375 -0.171875 -0.5625 -0.421875q-0.171875 -0.25 -0.25 -0.609375q-0.046875 -0.234375 -0.046875 -0.765625l0 -3.0l0.828125 0l0 2.6875q0 0.640625 0.046875 0.875q0.078125 0.3125 0.328125 0.5q0.25 0.1875 0.609375 0.1875q0.375 0 0.703125 -0.1875q0.328125 -0.1875 0.453125 -0.515625q0.140625 -0.328125 0.140625 -0.953125l0 -2.59375l0.8125 0l0 4.84375l-0.734375 0zm2.7816162 0l-0.765625 0l0 -6.671875l0.828125 0l0 2.375q0.515625 -0.65625 1.3125 -0.65625q0.453125 0 0.84375 0.1875q0.40625 0.171875 0.65625 0.5q0.265625 0.328125 0.40625 0.796875q0.15625 0.453125 0.15625 0.984375q0 1.234375 -0.625 1.921875q-0.609375 0.671875 -1.46875 0.671875q-0.859375 0 -1.34375 -0.71875l0 0.609375zm-0.015625 -2.453125q0 0.875 0.234375 1.25q0.390625 0.640625 1.046875 0.640625q0.546875 0 0.9375 -0.46875q0.390625 -0.46875 0.390625 -1.390625q0 -0.953125 -0.375 -1.390625q-0.375 -0.453125 -0.90625 -0.453125q-0.546875 0 -0.9375 0.46875q-0.390625 0.453125 -0.390625 1.34375zm4.422241 2.453125l0 -6.671875l0.828125 0l0 6.671875l-0.828125 0zm2.1036682 -5.734375l0 -0.9375l0.8125 0l0 0.9375l-0.8125 0zm0 5.734375l0 -4.84375l0.8125 0l0 4.84375l-0.8125 0zm5.213047 -1.765625l0.8125 0.09375q-0.125 0.84375 -0.671875 1.3125q-0.546875 0.46875 -1.3437538 0.46875q-0.984375 0 -1.59375 -0.640625q-0.609375 -0.65625 -0.609375 -1.875q0 -0.78125 0.265625 -1.359375q0.265625 -0.59375 0.78125 -0.890625q0.53125 -0.296875 1.15625 -0.296875q0.7968788 0 1.2968788 0.40625q0.5 0.390625 0.640625 1.125l-0.796875 0.125q-0.109375 -0.484375 -0.40625 -0.71875q-0.28125 -0.25 -0.7031288 -0.25q-0.609375 0 -1.0 0.4375q-0.390625 0.4375 -0.390625 1.40625q0 0.96875 0.375 1.421875q0.375 0.4375 0.984375 0.4375q0.4687538 0 0.7968788 -0.296875q0.328125 -0.296875 0.40625 -0.90625zm4.177597 1.765625l0 -6.671875l0.875 0l0 3.3125l3.3125 -3.3125l1.203125 0l-2.796875 2.703125l2.921875 3.96875l-1.171875 0l-2.375 -3.375l-1.09375 1.0625l0 2.3125l-0.875 0zm9.4561615 -1.5625l0.84375 0.109375q-0.1875 0.75 -0.734375 1.15625q-0.546875 0.40625 -1.390625 0.40625q-1.0625 0 -1.6875 -0.65625q-0.609375 -0.65625 -0.609375 -1.828125q0 -1.21875 0.625 -1.890625q0.625 -0.6875 1.625 -0.6875q0.984375 0 1.59375 0.671875q0.609375 0.65625 0.609375 1.859375q0 0.0625 0 0.21875l-3.609375 0q0.046875 0.796875 0.453125 1.21875q0.40625 0.421875 1.015625 0.421875q0.453125 0 0.765625 -0.234375q0.3125 -0.234375 0.5 -0.765625zm-2.6875 -1.328125l2.703125 0q-0.0625 -0.609375 -0.3125 -0.90625q-0.390625 -0.46875 -1.015625 -0.46875q-0.5625 0 -0.953125 0.375q-0.375 0.375 -0.421875 1.0zm4.531616 4.75l-0.09375 -0.765625q0.265625 0.078125 0.46875 0.078125q0.28125 0 0.4375 -0.09375q0.171875 -0.09375 0.265625 -0.265625q0.078125 -0.109375 0.25 -0.609375q0.03125 -0.0625 0.078125 -0.1875l-1.828125 -4.859375l0.875 0l1.015625 2.8125q0.1875 0.53125 0.34375 1.109375q0.140625 -0.5625 0.34375 -1.09375l1.03125 -2.828125l0.8125 0l-1.84375 4.921875q-0.28125 0.796875 -0.453125 1.09375q-0.21875 0.40625 -0.5 0.59375q-0.28125 0.203125 -0.671875 0.203125q-0.234375 0 -0.53125 -0.109375z" fill-rule="nonzero"/><path fill="#ffffff" d="m52.544277 167.8865l0 -6.671875l0.875 0l0 2.734375l3.46875 0l0 -2.734375l0.890625 0l0 6.671875l-0.890625 0l0 -3.140625l-3.46875 0l0 3.140625l-0.875 0zm9.752106 -0.59375q-0.453125 0.390625 -0.875 0.546875q-0.421875 0.15625 -0.90625 0.15625q-0.796875 0 -1.21875 -0.390625q-0.421875 -0.390625 -0.421875 -1.0q0 -0.34375 0.15625 -0.640625q0.15625 -0.296875 0.421875 -0.46875q0.265625 -0.1875 0.59375 -0.28125q0.234375 -0.0625 0.71875 -0.109375q1.0 -0.125 1.46875 -0.28125q0 -0.171875 0 -0.21875q0 -0.5 -0.234375 -0.703125q-0.3125 -0.28125 -0.921875 -0.28125q-0.578125 0 -0.859375 0.203125q-0.28125 0.203125 -0.40625 0.71875l-0.796875 -0.109375q0.109375 -0.515625 0.359375 -0.828125q0.25 -0.328125 0.71875 -0.5q0.46875 -0.171875 1.09375 -0.171875q0.625 0 1.0 0.15625q0.390625 0.140625 0.578125 0.359375q0.1875 0.21875 0.25 0.5625q0.046875 0.203125 0.046875 0.75l0 1.09375q0 1.140625 0.046875 1.453125q0.0625 0.296875 0.21875 0.578125l-0.859375 0q-0.125 -0.25 -0.171875 -0.59375zm-0.0625 -1.828125q-0.453125 0.171875 -1.34375 0.296875q-0.5 0.078125 -0.71875 0.171875q-0.203125 0.09375 -0.3125 0.265625q-0.109375 0.171875 -0.109375 0.390625q0 0.328125 0.234375 0.546875q0.25 0.21875 0.734375 0.21875q0.46875 0 0.828125 -0.203125q0.375 -0.21875 0.5625 -0.578125q0.125 -0.265625 0.125 -0.8125l0 -0.296875zm1.7659912 0.984375l0.8125038 -0.140625q0.078125 0.5 0.390625 0.765625q0.3125 0.25 0.859375 0.25q0.578125 0 0.84375 -0.234375q0.28125 -0.234375 0.28125 -0.53125q0 -0.28125 -0.25 -0.4375q-0.171875 -0.109375 -0.84375 -0.28125q-0.890625 -0.234375 -1.25 -0.390625q-0.34375 -0.171875 -0.53125 -0.46875q-0.171875 -0.296875 -0.171875 -0.640625q0 -0.328125 0.140625 -0.59375q0.15625 -0.28125 0.40625 -0.46875q0.203125 -0.140625 0.53125 -0.234375q0.328125 -0.109375 0.703125 -0.109375q0.578125 0 1.0 0.171875q0.4375 0.15625 0.640625 0.4375q0.203125 0.28125 0.28125 0.75l-0.796875 0.109375q-0.0625 -0.375 -0.328125 -0.578125q-0.265625 -0.203125 -0.734375 -0.203125q-0.5625 0 -0.8125 0.1875q-0.234375 0.171875 -0.234375 0.4375q0 0.15625 0.09375 0.28125q0.109375 0.125 0.3125 0.21875q0.125 0.046875 0.734375 0.203125q0.859375 0.234375 1.203125 0.390625q0.34375 0.140625 0.53125 0.421875q0.203125 0.28125 0.203125 0.703125q0 0.40625 -0.234375 0.78125q-0.234375 0.359375 -0.6875 0.5625q-0.453125 0.1875 -1.015625 0.1875q-0.953125 0 -1.453125 -0.390625q-0.484375 -0.390625 -0.6250038 -1.15625zm4.9921913 1.4375l0 -6.671875l0.828125 0l0 2.390625q0.578125 -0.671875 1.453125 -0.671875q0.53125 0 0.921875 0.21875q0.40625 0.21875 0.578125 0.59375q0.171875 0.359375 0.171875 1.078125l0 3.0625l-0.828125 0l0 -3.0625q0 -0.625 -0.265625 -0.890625q-0.265625 -0.28125 -0.75 -0.28125q-0.375 0 -0.703125 0.1875q-0.3125 0.1875 -0.453125 0.515625q-0.125 0.3125 -0.125 0.890625l0 2.640625l-0.828125 0z" fill-rule="nonzero"/><path fill="#dd7e6b" d="m484.41995 116.02109l0 0c0 -2.4614105 1.9953613 -4.4567795 4.456787 -4.4567795l69.16519 0c1.1820068 0 2.3156128 0.4695511 3.1513672 1.3053589c0.8358154 0.8358078 1.3053589 1.9694061 1.3053589 3.1514206l0 17.8266c0 2.4614105 -1.9953613 4.456772 -4.456726 4.456772l-69.16519 0c-2.4614258 0 -4.456787 -1.9953613 -4.456787 -4.456772z" fill-rule="evenodd"/><path stroke="#000000" stroke-width="1.0" stroke-linejoin="round" stroke-linecap="butt" d="m484.41995 116.02109l0 0c0 -2.4614105 1.9953613 -4.4567795 4.456787 -4.4567795l69.16519 0c1.1820068 0 2.3156128 0.4695511 3.1513672 1.3053589c0.8358154 0.8358078 1.3053589 1.9694061 1.3053589 3.1514206l0 17.8266c0 2.4614105 -1.9953613 4.456772 -4.456726 4.456772l-69.16519 0c-2.4614258 0 -4.456787 -1.9953613 -4.456787 -4.456772z" fill-rule="evenodd"/><path fill="#ffffff" d="m502.14218 122.89438l0 -6.671875l2.515625 0q0.671875 0 1.015625 0.0625q0.5 0.078125 0.828125 0.3125q0.328125 0.21875 0.53125 0.640625q0.203125 0.40625 0.203125 0.90625q0 0.859375 -0.546875 1.453125q-0.53125 0.578125 -1.953125 0.578125l-1.703125 0l0 2.71875l-0.890625 0zm0.890625 -3.5l1.71875 0q0.859375 0 1.21875 -0.3125q0.359375 -0.328125 0.359375 -0.90625q0 -0.421875 -0.21875 -0.71875q-0.203125 -0.296875 -0.546875 -0.390625q-0.234375 -0.0625 -0.828125 -0.0625l-1.703125 0l0 2.390625zm8.393646 3.5l0 -0.703125q-0.5625 0.8125 -1.53125 0.8125q-0.421875 0 -0.796875 -0.15625q-0.375 -0.171875 -0.5625 -0.421875q-0.171875 -0.25 -0.25 -0.609375q-0.046875 -0.234375 -0.046875 -0.765625l0 -3.0l0.828125 0l0 2.6875q0 0.640625 0.046875 0.875q0.078125 0.3125 0.328125 0.5q0.25 0.1875 0.609375 0.1875q0.375 0 0.703125 -0.1875q0.328125 -0.1875 0.453125 -0.515625q0.140625 -0.328125 0.140625 -0.953125l0 -2.59375l0.8125 0l0 4.84375l-0.734375 0zm2.7816162 0l-0.765625 0l0 -6.671875l0.828125 0l0 2.375q0.515625 -0.65625 1.3125 -0.65625q0.453125 0 0.84375 0.1875q0.40625 0.171875 0.65625 0.5q0.265625 0.328125 0.40625 0.796875q0.15625 0.453125 0.15625 0.984375q0 1.234375 -0.625 1.921875q-0.609375 0.671875 -1.46875 0.671875q-0.859375 0 -1.34375 -0.71875l0 0.609375zm-0.015625 -2.453125q0 0.875 0.234375 1.25q0.390625 0.640625 1.046875 0.640625q0.546875 0 0.9375 -0.46875q0.390625 -0.46875 0.390625 -1.390625q0 -0.953125 -0.375 -1.390625q-0.375 -0.453125 -0.90625 -0.453125q-0.546875 0 -0.9375 0.46875q-0.390625 0.453125 -0.390625 1.34375zm4.422241 2.453125l0 -6.671875l0.828125 0l0 6.671875l-0.828125 0zm2.1036987 -5.734375l0 -0.9375l0.8125 0l0 0.9375l-0.8125 0zm0 5.734375l0 -4.84375l0.8125 0l0 4.84375l-0.8125 0zm5.2130127 -1.765625l0.8125 0.09375q-0.125 0.84375 -0.671875 1.3125q-0.546875 0.46875 -1.34375 0.46875q-0.984375 0 -1.59375 -0.640625q-0.609375 -0.65625 -0.609375 -1.875q0 -0.78125 0.265625 -1.359375q0.265625 -0.59375 0.78125 -0.890625q0.53125 -0.296875 1.15625 -0.296875q0.796875 0 1.296875 0.40625q0.5 0.390625 0.640625 1.125l-0.796875 0.125q-0.109375 -0.484375 -0.40625 -0.71875q-0.28125 -0.25 -0.703125 -0.25q-0.609375 0 -1.0 0.4375q-0.390625 0.4375 -0.390625 1.40625q0 0.96875 0.375 1.421875q0.375 0.4375 0.984375 0.4375q0.46875 0 0.796875 -0.296875q0.328125 -0.296875 0.40625 -0.90625zm4.1776123 1.765625l0 -6.671875l0.875 0l0 3.3125l3.3125 -3.3125l1.203125 0l-2.796875 2.703125l2.921875 3.96875l-1.171875 0l-2.375 -3.375l-1.09375 1.0625l0 2.3125l-0.875 0zm9.456177 -1.5625l0.84375 0.109375q-0.1875 0.75 -0.734375 1.15625q-0.546875 0.40625 -1.390625 0.40625q-1.0625 0 -1.6875 -0.65625q-0.609375 -0.65625 -0.609375 -1.828125q0 -1.21875 0.625 -1.890625q0.625 -0.6875 1.625 -0.6875q0.984375 0 1.59375 0.671875q0.609375 0.65625 0.609375 1.859375q0 0.0625 0 0.21875l-3.609375 0q0.046875 0.796875 0.453125 1.21875q0.40625 0.421875 1.015625 0.421875q0.453125 0 0.765625 -0.234375q0.3125 -0.234375 0.5 -0.765625zm-2.6875 -1.328125l2.703125 0q-0.0625 -0.609375 -0.3125 -0.90625q-0.390625 -0.46875 -1.015625 -0.46875q-0.5625 0 -0.953125 0.375q-0.375 0.375 -0.421875 1.0zm4.531616 4.75l-0.09375 -0.765625q0.265625 0.078125 0.46875 0.078125q0.28125 0 0.4375 -0.09375q0.171875 -0.09375 0.265625 -0.265625q0.078125 -0.109375 0.25 -0.609375q0.03125 -0.0625 0.078125 -0.1875l-1.828125 -4.859375l0.875 0l1.015625 2.8125q0.1875 0.53125 0.34375 1.109375q0.140625 -0.5625 0.34375 -1.09375l1.03125 -2.828125l0.8125 0l-1.84375 4.921875q-0.28125 0.796875 -0.453125 1.09375q-0.21875 0.40625 -0.5 0.59375q-0.28125 0.203125 -0.671875 0.203125q-0.234375 0 -0.53125 -0.109375z" fill-rule="nonzero"/><path fill="#ffffff" d="m513.32117 133.89438l0 -6.671875l0.875 0l0 2.734375l3.46875 0l0 -2.734375l0.890625 0l0 6.671875l-0.890625 0l0 -3.140625l-3.46875 0l0 3.140625l-0.875 0zm9.752136 -0.59375q-0.453125 0.390625 -0.875 0.546875q-0.421875 0.15625 -0.90625 0.15625q-0.796875 0 -1.21875 -0.390625q-0.421875 -0.390625 -0.421875 -1.0q0 -0.34375 0.15625 -0.640625q0.15625 -0.296875 0.421875 -0.46875q0.265625 -0.1875 0.59375 -0.28125q0.234375 -0.0625 0.71875 -0.109375q1.0 -0.125 1.46875 -0.28125q0 -0.171875 0 -0.21875q0 -0.5 -0.234375 -0.703125q-0.3125 -0.28125 -0.921875 -0.28125q-0.578125 0 -0.859375 0.203125q-0.28125 0.203125 -0.40625 0.71875l-0.796875 -0.109375q0.109375 -0.515625 0.359375 -0.828125q0.25 -0.328125 0.71875 -0.5q0.46875 -0.171875 1.09375 -0.171875q0.625 0 1.0 0.15625q0.390625 0.140625 0.578125 0.359375q0.1875 0.21875 0.25 0.5625q0.046875 0.203125 0.046875 0.75l0 1.09375q0 1.140625 0.046875 1.453125q0.0625 0.296875 0.21875 0.578125l-0.859375 0q-0.125 -0.25 -0.171875 -0.59375zm-0.0625 -1.828125q-0.453125 0.171875 -1.34375 0.296875q-0.5 0.078125 -0.71875 0.171875q-0.203125 0.09375 -0.3125 0.265625q-0.109375 0.171875 -0.109375 0.390625q0 0.328125 0.234375 0.546875q0.25 0.21875 0.734375 0.21875q0.46875 0 0.828125 -0.203125q0.375 -0.21875 0.5625 -0.578125q0.125 -0.265625 0.125 -0.8125l0 -0.296875zm1.7659912 0.984375l0.8125 -0.140625q0.078125 0.5 0.390625 0.765625q0.3125 0.25 0.859375 0.25q0.578125 0 0.84375 -0.234375q0.28125 -0.234375 0.28125 -0.53125q0 -0.28125 -0.25 -0.4375q-0.171875 -0.109375 -0.84375 -0.28125q-0.890625 -0.234375 -1.25 -0.390625q-0.34375 -0.171875 -0.53125 -0.46875q-0.171875 -0.296875 -0.171875 -0.640625q0 -0.328125 0.140625 -0.59375q0.15625 -0.28125 0.40625 -0.46875q0.203125 -0.140625 0.53125 -0.234375q0.328125 -0.109375 0.703125 -0.109375q0.578125 0 1.0 0.171875q0.4375 0.15625 0.640625 0.4375q0.203125 0.28125 0.28125 0.75l-0.796875 0.109375q-0.0625 -0.375 -0.328125 -0.578125q-0.265625 -0.203125 -0.734375 -0.203125q-0.5625 0 -0.8125 0.1875q-0.234375 0.171875 -0.234375 0.4375q0 0.15625 0.09375 0.28125q0.109375 0.125 0.3125 0.21875q0.125 0.046875 0.734375 0.203125q0.859375 0.234375 1.203125 0.390625q0.34375 0.140625 0.53125 0.421875q0.203125 0.28125 0.203125 0.703125q0 0.40625 -0.234375 0.78125q-0.234375 0.359375 -0.6875 0.5625q-0.453125 0.1875 -1.015625 0.1875q-0.953125 0 -1.453125 -0.390625q-0.484375 -0.390625 -0.625 -1.15625zm4.9921875 1.4375l0 -6.671875l0.828125 0l0 2.390625q0.578125 -0.671875 1.453125 -0.671875q0.53125 0 0.921875 0.21875q0.40625 0.21875 0.578125 0.59375q0.171875 0.359375 0.171875 1.078125l0 3.0625l-0.828125 0l0 -3.0625q0 -0.625 -0.265625 -0.890625q-0.265625 -0.28125 -0.75 -0.28125q-0.375 0 -0.703125 0.1875q-0.3125 0.1875 -0.453125 0.515625q-0.125 0.3125 -0.125 0.890625l0 2.640625l-0.828125 0z" fill-rule="nonzero"/><path fill="#000000" fill-opacity="0.0" d="m431.52032 124.90393c13.224915 0 19.835663 0.01574707 26.44983 0.03149414c6.6141663 0.01574707 13.231781 0.03149414 26.463562 0.03149414" fill-rule="evenodd"/><path stroke="#000000" stroke-width="1.0" stroke-linejoin="round" stroke-linecap="butt" d="m431.52032 124.90393c13.224915 0 19.835663 0.01574707 26.44983 0.03149414c6.6141663 0.01574707 13.231781 0.03149414 26.463562 0.03149414" fill-rule="evenodd"/><path fill="#000000" fill-opacity="0.0" d="m71.462135 124.93438c0 5.155525 -2.196846 7.7323074 -4.3936996 10.311043c-2.196846 2.5787354 -4.3936996 5.159439 -4.3936996 10.318878" fill-rule="evenodd"/><path stroke="#000000" stroke-width="1.0" stroke-linejoin="round" stroke-linecap="butt" d="m71.462135 124.93438c0 5.155525 -2.196846 7.7323074 -4.3936996 10.311043c-1.0984268 1.2893677 -2.196846 2.579239 -3.020668 4.191681l-0.12735367 0.25793457" fill-rule="evenodd"/><path fill="#000000" stroke="#000000" stroke-width="1.0" stroke-linecap="butt" d="m62.304672 139.35211l0.67357254 4.7821503l2.557911 -4.096298z" fill-rule="evenodd"/><path fill="#000000" fill-opacity="0.0" d="m62.682415 172.29659c0 73.70079 93.66928 147.40157 187.33858 147.40157" fill-rule="evenodd"/><path stroke="#000000" stroke-width="1.0" stroke-linejoin="round" stroke-linecap="butt" d="m62.682415 172.29659c0 36.850403 23.417324 73.70079 58.54331 101.33858c17.562988 13.818909 38.053146 25.334656 60.00688 33.39569c10.976883 4.030487 22.319641 7.1973267 33.845352 9.356537c5.762863 1.0795898 11.571442 1.9072876 17.402908 2.465088c2.915741 0.27890015 5.8371887 0.4902954 8.76149 0.63201904c0.73109436 0.03540039 1.462326 0.066467285 2.1937256 0.093170166l0.5857544 0.019592285" fill-rule="evenodd"/><path fill="#000000" stroke="#000000" stroke-width="1.0" stroke-linecap="butt" d="m243.99406 321.24875l4.5652313 -1.5751648l-4.509674 -1.7278137z" fill-rule="evenodd"/><path fill="#93c47d" d="m250.01181 304.59055l78.078735 0l0 30.204742l-78.078735 0z" fill-rule="evenodd"/><path stroke="#000000" stroke-width="1.0" stroke-linejoin="round" stroke-linecap="butt" d="m250.01181 304.59055l78.078735 0l0 30.204742l-78.078735 0z" fill-rule="evenodd"/><path fill="#000000" d="m270.1894 324.77292l0 -10.484375l2.078125 0l2.484375 7.421875q0.34375 1.03125 0.5 1.546875q0.1875 -0.5625 0.5625 -1.671875l2.515625 -7.296875l1.859375 0l0 10.484375l-1.328125 0l0 -8.78125l-3.046875 8.78125l-1.265625 0l-3.03125 -8.9375l0 8.9375l-1.328125 0zm17.036896 -0.9375q-0.71875 0.609375 -1.375 0.859375q-0.65625 0.25 -1.421875 0.25q-1.25 0 -1.921875 -0.609375q-0.671875 -0.609375 -0.671875 -1.5625q0 -0.5625 0.25 -1.015625q0.25 -0.46875 0.65625 -0.75q0.421875 -0.28125 0.9375 -0.421875q0.375 -0.09375 1.140625 -0.1875q1.5625 -0.1875 2.296875 -0.453125q0.015625 -0.265625 0.015625 -0.328125q0 -0.796875 -0.375 -1.109375q-0.484375 -0.4375 -1.453125 -0.4375q-0.921875 0 -1.359375 0.328125q-0.421875 0.3125 -0.625 1.109375l-1.265625 -0.171875q0.171875 -0.796875 0.5625 -1.296875q0.390625 -0.5 1.140625 -0.765625q0.75 -0.265625 1.71875 -0.265625q0.984375 0 1.59375 0.234375q0.609375 0.21875 0.890625 0.5625q0.28125 0.34375 0.40625 0.875q0.0625 0.328125 0.0625 1.1875l0 1.71875q0 1.796875 0.078125 2.28125q0.078125 0.46875 0.328125 0.90625l-1.34375 0q-0.203125 -0.40625 -0.265625 -0.9375zm-0.109375 -2.875q-0.703125 0.28125 -2.09375 0.484375q-0.796875 0.109375 -1.125 0.265625q-0.328125 0.140625 -0.515625 0.421875q-0.171875 0.265625 -0.171875 0.59375q0 0.515625 0.390625 0.859375q0.390625 0.34375 1.140625 0.34375q0.734375 0 1.3125 -0.3125q0.59375 -0.328125 0.859375 -0.890625q0.203125 -0.4375 0.203125 -1.296875l0 -0.46875zm6.1198425 2.65625l0.1875 1.140625q-0.546875 0.109375 -0.984375 0.109375q-0.6875 0 -1.078125 -0.21875q-0.390625 -0.21875 -0.546875 -0.578125q-0.15625 -0.359375 -0.15625 -1.515625l0 -4.375l-0.953125 0l0 -1.0l0.953125 0l0 -1.890625l1.28125 -0.765625l0 2.65625l1.296875 0l0 1.0l-1.296875 0l0 4.4375q0 0.546875 0.0625 0.71875q0.078125 0.15625 0.21875 0.25q0.15625 0.078125 0.453125 0.078125q0.203125 0 0.5625 -0.046875zm6.212616 -1.625l1.265625 0.15625q-0.203125 1.3125 -1.0625 2.0625q-0.84375 0.734375 -2.09375 0.734375q-1.5625 0 -2.515625 -1.015625q-0.9375 -1.03125 -0.9375 -2.921875q0 -1.234375 0.40625 -2.15625q0.40625 -0.921875 1.234375 -1.375q0.84375 -0.46875 1.8125 -0.46875q1.25 0 2.03125 0.625q0.78125 0.625 1.015625 1.765625l-1.265625 0.203125q-0.171875 -0.765625 -0.625 -1.15625q-0.453125 -0.390625 -1.09375 -0.390625q-0.984375 0 -1.59375 0.703125q-0.609375 0.703125 -0.609375 2.203125q0 1.53125 0.578125 2.234375q0.59375 0.6875 1.546875 0.6875q0.75 0 1.265625 -0.453125q0.515625 -0.46875 0.640625 -1.4375zm2.375 2.78125l0 -10.484375l1.28125 0l0 3.75q0.90625 -1.03125 2.28125 -1.03125q0.84375 0 1.46875 0.328125q0.625 0.328125 0.890625 0.921875q0.265625 0.578125 0.265625 1.703125l0 4.8125l-1.28125 0l0 -4.8125q0 -0.96875 -0.421875 -1.40625q-0.421875 -0.4375 -1.1875 -0.4375q-0.578125 0 -1.078125 0.296875q-0.5 0.296875 -0.71875 0.8125q-0.21875 0.5 -0.21875 1.390625l0 4.15625l-1.28125 0z" fill-rule="nonzero"/><path fill="#000000" fill-opacity="0.0" d="m523.4593 138.30446c0 90.69292 -97.685 181.38582 -195.37006 181.38582" fill-rule="evenodd"/><path stroke="#000000" stroke-width="1.0" stroke-linejoin="round" stroke-linecap="butt" d="m523.4593 138.30446c0 45.346466 -24.421234 90.69292 -61.05313 124.702774c-18.315948 17.004913 -39.68454 31.17566 -62.579468 41.095215c-11.447479 4.959778 -23.27649 8.85672 -35.296356 11.513733c-6.009918 1.3285217 -12.067535 2.347046 -18.149017 3.0334473c-3.0407104 0.34320068 -6.0874023 0.60336304 -9.137085 0.77770996c-0.76242065 0.04360962 -1.5250244 0.08181763 -2.2877502 0.11465454l-0.86831665 0.034301758" fill-rule="evenodd"/><path fill="#000000" stroke="#000000" stroke-width="1.0" stroke-linecap="butt" d="m334.05676 317.92484l-4.50589 1.7376709l4.5686646 1.5652161z" fill-rule="evenodd"/><path fill="#000000" fill-opacity="0.0" d="m377.4416 138.274c0 62.48819 -21.77951 124.976395 -43.55905 124.976395" fill-rule="evenodd"/><path stroke="#000000" stroke-width="1.0" stroke-linejoin="round" stroke-linecap="butt" d="m377.4416 138.27402c0 31.244095 -5.4448853 62.48819 -13.612183 85.92125c-4.083679 11.716537 -8.847931 21.480316 -13.952515 28.314972c-2.5523071 3.4173126 -5.189636 6.1023407 -7.8695374 7.9330597c-0.6700134 0.45767212 -1.3426208 0.861969 -2.017273 1.2109375c-0.08432007 0.04360962 -0.16867065 0.08639526 -0.25305176 0.1282959l-0.032806396 0.015930176" fill-rule="evenodd"/><path fill="#000000" stroke="#000000" stroke-width="1.0" stroke-linecap="butt" d="m339.3045 260.1958l-4.0035095 2.7008362l4.8029175 0.50445557z" fill-rule="evenodd"/></g></svg>