<svg version="1.1" viewBox="0.0 0.0 525.1548556430446 317.4514435695538" fill="none" stroke="none" stroke-linecap="square" stroke-miterlimit="10" xmlns:xlink="http://www.w3.org/1999/xlink" xmlns="http://www.w3.org/2000/svg"><clipPath id="p.0"><path d="m0 0l525.15485 0l0 317.45145l-525.15485 0l0 -317.45145z" clip-rule="nonzero"/></clipPath><g clip-path="url(#p.0)"><path fill="#000000" fill-opacity="0.0" d="m0 0l525.15485 0l0 317.45145l-525.15485 0z" fill-rule="evenodd"/><path fill="#ffffff" d="m113.65662 71.05428l0 0c0 -13.086948 10.60907 -23.696014 23.696014 -23.696014l230.7497 0c6.2845764 0 12.311768 2.4965363 16.755615 6.940399c4.443878 4.4438667 6.940399 10.471039 6.940399 16.755615l0 94.7812c0 13.086945 -10.60907 23.696014 -23.696014 23.696014l-230.7497 0c-13.086945 0 -23.696014 -10.60907 -23.696014 -23.696014z" fill-rule="evenodd"/><path stroke="#000000" stroke-width="1.0" stroke-linejoin="round" stroke-linecap="butt" d="m113.65662 71.05428l0 0c0 -13.086948 10.60907 -23.696014 23.696014 -23.696014l230.7497 0c6.2845764 0 12.311768 2.4965363 16.755615 6.940399c4.443878 4.4438667 6.940399 10.471039 6.940399 16.755615l0 94.7812c0 13.086945 -10.60907 23.696014 -23.696014 23.696014l-230.7497 0c-13.086945 0 -23.696014 -10.60907 -23.696014 -23.696014z" fill-rule="evenodd"/><path fill="#000000" fill-opacity="0.0" d="m151.45538 52.143044l148.6929 0l0 35.244095l-148.6929 0z" fill-rule="evenodd"/><path fill="#000000" d="m181.6857 70.10304l0 -6.671875l2.953125 0q0.90625 0 1.359375 0.1875q0.46875 0.171875 0.75 0.625q0.28125 0.453125 0.28125 1.0q0 0.71875 -0.46875 1.203125q-0.453125 0.484375 -1.421875 0.625q0.359375 0.15625 0.53125 0.328125q0.390625 0.359375 0.734375 0.890625l1.171875 1.8125l-1.125 0l-0.875 -1.390625q-0.390625 -0.59375 -0.640625 -0.90625q-0.25 -0.328125 -0.453125 -0.453125q-0.1875 -0.140625 -0.390625 -0.1875q-0.15625 -0.03125 -0.5 -0.03125l-1.03125 0l0 2.96875l-0.875 0zm0.875 -3.734375l1.90625 0q0.609375 0 0.953125 -0.125q0.34375 -0.125 0.515625 -0.390625q0.171875 -0.28125 0.171875 -0.609375q0 -0.46875 -0.34375 -0.765625q-0.34375 -0.3125 -1.078125 -0.3125l-2.125 0l0 2.203125zm9.048981 2.171875l0.84375 0.109375q-0.1875 0.75 -0.734375 1.15625q-0.546875 0.40625 -1.390625 0.40625q-1.0625 0 -1.6875 -0.65625q-0.609375 -0.65625 -0.609375 -1.828125q0 -1.21875 0.625 -1.890625q0.625 -0.6875 1.625 -0.6875q0.984375 0 1.59375 0.671875q0.609375 0.65625 0.609375 1.859375q0 0.0625 0 0.21875l-3.609375 0q0.046875 0.796875 0.453125 1.21875q0.40625 0.421875 1.015625 0.421875q0.453125 0 0.765625 -0.234375q0.3125 -0.234375 0.5 -0.765625zm-2.6875 -1.328125l2.703125 0q-0.0625 -0.609375 -0.3125 -0.90625q-0.390625 -0.46875 -1.015625 -0.46875q-0.5625 0 -0.953125 0.375q-0.375 0.375 -0.421875 1.0zm7.719116 1.125l0.8125 0.09375q-0.125 0.84375 -0.671875 1.3125q-0.546875 0.46875 -1.34375 0.46875q-0.984375 0 -1.59375 -0.640625q-0.609375 -0.65625 -0.609375 -1.875q0 -0.78125 0.265625 -1.359375q0.265625 -0.59375 0.78125 -0.890625q0.53125 -0.296875 1.15625 -0.296875q0.796875 0 1.296875 0.40625q0.5 0.390625 0.640625 1.125l-0.796875 0.125q-0.109375 -0.484375 -0.40625 -0.71875q-0.28125 -0.25 -0.703125 -0.25q-0.609375 0 -1.0 0.4375q-0.390625 0.4375 -0.390625 1.40625q0 0.96875 0.375 1.421875q0.375 0.4375 0.984375 0.4375q0.46875 0 0.796875 -0.296875q0.328125 -0.296875 0.40625 -0.90625zm4.8203125 0.203125l0.84375 0.109375q-0.1875 0.75 -0.734375 1.15625q-0.546875 0.40625 -1.390625 0.40625q-1.0625 0 -1.6875 -0.65625q-0.609375 -0.65625 -0.609375 -1.828125q0 -1.21875 0.625 -1.890625q0.625 -0.6875 1.625 -0.6875q0.984375 0 1.59375 0.671875q0.609375 0.65625 0.609375 1.859375q0 0.0625 0 0.21875l-3.609375 0q0.046875 0.796875 0.453125 1.21875q0.40625 0.421875 1.015625 0.421875q0.453125 0 0.765625 -0.234375q0.3125 -0.234375 0.5 -0.765625zm-2.6875 -1.328125l2.703125 0q-0.0625 -0.609375 -0.3125 -0.90625q-0.390625 -0.46875 -1.015625 -0.46875q-0.5625 0 -0.953125 0.375q-0.375 0.375 -0.421875 1.0zm4.578491 -2.84375l0 -0.9375l0.8125 0l0 0.9375l-0.8125 0zm0 5.734375l0 -4.84375l0.8125 0l0 4.84375l-0.8125 0zm3.4005432 0l-1.828125 -4.84375l0.859375 0l1.03125 2.90625q0.171875 0.46875 0.3125 0.96875q0.109375 -0.375 0.3125 -0.921875l1.078125 -2.953125l0.84375 0l-1.84375 4.84375l-0.765625 0zm6.6328125 -1.5625l0.84375 0.109375q-0.1875 0.75 -0.734375 1.15625q-0.546875 0.40625 -1.390625 0.40625q-1.0625 0 -1.6875 -0.65625q-0.609375 -0.65625 -0.609375 -1.828125q0 -1.21875 0.625 -1.890625q0.625 -0.6875 1.625 -0.6875q0.984375 0 1.59375 0.671875q0.609375 0.65625 0.609375 1.859375q0 0.0625 0 0.21875l-3.609375 0q0.046875 0.796875 0.453125 1.21875q0.40625 0.421875 1.015625 0.421875q0.453125 0 0.765625 -0.234375q0.3125 -0.234375 0.5 -0.765625zm-2.6875 -1.328125l2.703125 0q-0.0625 -0.609375 -0.3125 -0.90625q-0.390625 -0.46875 -1.015625 -0.46875q-0.5625 0 -0.953125 0.375q-0.375 0.375 -0.421875 1.0zm7.703491 2.890625l0 -0.609375q-0.453125 0.71875 -1.34375 0.71875q-0.578125 0 -1.0625 -0.3125q-0.484375 -0.328125 -0.765625 -0.890625q-0.265625 -0.578125 -0.265625 -1.3125q0 -0.734375 0.234375 -1.3125q0.25 -0.59375 0.734375 -0.90625q0.484375 -0.328125 1.078125 -0.328125q0.4375 0 0.78125 0.1875q0.34375 0.1875 0.5625 0.484375l0 -2.390625l0.8125 0l0 6.671875l-0.765625 0zm-2.59375 -2.40625q0 0.921875 0.390625 1.390625q0.390625 0.453125 0.9375 0.453125q0.53125 0 0.90625 -0.4375q0.375 -0.4375 0.375 -1.34375q0 -1.0 -0.390625 -1.453125q-0.375 -0.46875 -0.9375 -0.46875q-0.546875 0 -0.921875 0.453125q-0.359375 0.4375 -0.359375 1.40625zm8.876526 2.40625l0 -5.890625l-2.203125 0l0 -0.78125l5.296875 0l0 0.78125l-2.21875 0l0 5.890625l-0.875 0zm3.5391388 0l0 -4.84375l0.734375 0l0 0.734375q0.28125 -0.515625 0.515625 -0.671875q0.25 -0.171875 0.53125 -0.171875q0.421875 0 0.84375 0.265625l-0.28125 0.765625q-0.296875 -0.171875 -0.609375 -0.171875q-0.265625 0 -0.484375 0.15625q-0.203125 0.15625 -0.296875 0.453125q-0.140625 0.4375 -0.140625 0.953125l0 2.53125l-0.8125 0zm6.2625885 -0.59375q-0.453125 0.390625 -0.875 0.546875q-0.421875 0.15625 -0.90625 0.15625q-0.796875 0 -1.21875 -0.390625q-0.421875 -0.390625 -0.421875 -1.0q0 -0.34375 0.15625 -0.640625q0.15625 -0.296875 0.421875 -0.46875q0.265625 -0.1875 0.59375 -0.28125q0.234375 -0.0625 0.71875 -0.109375q1.0 -0.125 1.46875 -0.28125q0 -0.171875 0 -0.21875q0 -0.5 -0.234375 -0.703125q-0.3125 -0.28125 -0.921875 -0.28125q-0.578125 0 -0.859375 0.203125q-0.28125 0.203125 -0.40625 0.71875l-0.796875 -0.109375q0.109375 -0.515625 0.359375 -0.828125q0.25 -0.328125 0.71875 -0.5q0.46875 -0.171875 1.09375 -0.171875q0.625 0 1.0 0.15625q0.390625 0.140625 0.578125 0.359375q0.1875 0.21875 0.25 0.5625q0.046875 0.203125 0.046875 0.75l0 1.09375q0 1.140625 0.046875 1.453125q0.0625 0.296875 0.21875 0.578125l-0.859375 0q-0.125 -0.25 -0.171875 -0.59375zm-0.0625 -1.828125q-0.453125 0.171875 -1.34375 0.296875q-0.5 0.078125 -0.71875 0.171875q-0.203125 0.09375 -0.3125 0.265625q-0.109375 0.171875 -0.109375 0.390625q0 0.328125 0.234375 0.546875q0.25 0.21875 0.734375 0.21875q0.46875 0 0.828125 -0.203125q0.375 -0.21875 0.5625 -0.578125q0.125 -0.265625 0.125 -0.8125l0 -0.296875zm2.0941162 2.421875l0 -4.84375l0.75 0l0 0.6875q0.53125 -0.796875 1.53125 -0.796875q0.4375 0 0.796875 0.171875q0.375 0.15625 0.546875 0.40625q0.1875 0.25 0.265625 0.609375q0.046875 0.21875 0.046875 0.796875l0 2.96875l-0.828125 0l0 -2.9375q0 -0.5 -0.09375 -0.75q-0.09375 -0.25 -0.34375 -0.390625q-0.234375 -0.15625 -0.5625 -0.15625q-0.515625 0 -0.90625 0.328125q-0.375 0.328125 -0.375 1.265625l0 2.640625l-0.828125 0zm4.859741 -1.4375l0.8125 -0.140625q0.078125 0.5 0.390625 0.765625q0.3125 0.25 0.859375 0.25q0.578125 0 0.84375 -0.234375q0.28125 -0.234375 0.28125 -0.53125q0 -0.28125 -0.25 -0.4375q-0.171875 -0.109375 -0.84375 -0.28125q-0.890625 -0.234375 -1.25 -0.390625q-0.34375 -0.171875 -0.53125 -0.46875q-0.171875 -0.296875 -0.171875 -0.640625q0 -0.328125 0.140625 -0.59375q0.15625 -0.28125 0.40625 -0.46875q0.203125 -0.140625 0.53125 -0.234375q0.328125 -0.109375 0.703125 -0.109375q0.578125 0 1.0 0.171875q0.4375 0.15625 0.640625 0.4375q0.203125 0.28125 0.28125 0.75l-0.796875 0.109375q-0.0625 -0.375 -0.328125 -0.578125q-0.265625 -0.203125 -0.734375 -0.203125q-0.5625 0 -0.8125 0.1875q-0.234375 0.171875 -0.234375 0.4375q0 0.15625 0.09375 0.28125q0.109375 0.125 0.3125 0.21875q0.125 0.046875 0.734375 0.203125q0.859375 0.234375 1.203125 0.390625q0.34375 0.140625 0.53125 0.421875q0.203125 0.28125 0.203125 0.703125q0 0.40625 -0.234375 0.78125q-0.234375 0.359375 -0.6875 0.5625q-0.453125 0.1875 -1.015625 0.1875q-0.953125 0 -1.453125 -0.390625q-0.484375 -0.390625 -0.625 -1.15625zm8.1484375 0.84375q-0.453125 0.390625 -0.875 0.546875q-0.421875 0.15625 -0.90625 0.15625q-0.796875 0 -1.21875 -0.390625q-0.421875 -0.390625 -0.421875 -1.0q0 -0.34375 0.15625 -0.640625q0.15625 -0.296875 0.421875 -0.46875q0.265625 -0.1875 0.59375 -0.28125q0.234375 -0.0625 0.71875 -0.109375q1.0 -0.125 1.46875 -0.28125q0 -0.171875 0 -0.21875q0 -0.5 -0.234375 -0.703125q-0.3125 -0.28125 -0.921875 -0.28125q-0.578125 0 -0.859375 0.203125q-0.28125 0.203125 -0.40625 0.71875l-0.796875 -0.109375q0.109375 -0.515625 0.359375 -0.828125q0.25 -0.328125 0.71875 -0.5q0.46875 -0.171875 1.09375 -0.171875q0.625 0 1.0 0.15625q0.390625 0.140625 0.578125 0.359375q0.1875 0.21875 0.25 0.5625q0.046875 0.203125 0.046875 0.75l0 1.09375q0 1.140625 0.046875 1.453125q0.0625 0.296875 0.21875 0.578125l-0.859375 0q-0.125 -0.25 -0.171875 -0.59375zm-0.0625 -1.828125q-0.453125 0.171875 -1.34375 0.296875q-0.5 0.078125 -0.71875 0.171875q-0.203125 0.09375 -0.3125 0.265625q-0.109375 0.171875 -0.109375 0.390625q0 0.328125 0.234375 0.546875q0.25 0.21875 0.734375 0.21875q0.46875 0 0.828125 -0.203125q0.375 -0.21875 0.5625 -0.578125q0.125 -0.265625 0.125 -0.8125l0 -0.296875zm5.250366 0.65625l0.8125 0.09375q-0.125 0.84375 -0.671875 1.3125q-0.546875 0.46875 -1.34375 0.46875q-0.984375 0 -1.59375 -0.640625q-0.609375 -0.65625 -0.609375 -1.875q0 -0.78125 0.265625 -1.359375q0.265625 -0.59375 0.78125 -0.890625q0.53125 -0.296875 1.15625 -0.296875q0.796875 0 1.296875 0.40625q0.5 0.390625 0.640625 1.125l-0.796875 0.125q-0.109375 -0.484375 -0.40625 -0.71875q-0.28125 -0.25 -0.703125 -0.25q-0.609375 0 -1.0 0.4375q-0.390625 0.4375 -0.390625 1.40625q0 0.96875 0.375 1.421875q0.375 0.4375 0.984375 0.4375q0.46875 0 0.796875 -0.296875q0.328125 -0.296875 0.40625 -0.90625zm3.3046875 1.03125l0.109375 0.71875q-0.34375 0.078125 -0.609375 0.078125q-0.453125 0 -0.703125 -0.140625q-0.234375 -0.140625 -0.34375 -0.359375q-0.09375 -0.234375 -0.09375 -0.984375l0 -2.78125l-0.609375 0l0 -0.640625l0.609375 0l0 -1.1875l0.8125 -0.5l0 1.6875l0.828125 0l0 0.640625l-0.828125 0l0 2.828125q0 0.359375 0.046875 0.46875q0.046875 0.09375 0.140625 0.15625q0.09375 0.046875 0.28125 0.046875q0.140625 0 0.359375 -0.03125zm0.8103943 -5.0l0 -0.9375l0.8125 0l0 0.9375l-0.8125 0zm0 5.734375l0 -4.84375l0.8125 0l0 4.84375l-0.8125 0zm1.7599182 -2.421875q0 -1.34375 0.75 -1.984375q0.625 -0.546875 1.515625 -0.546875q1.0 0 1.625 0.65625q0.640625 0.65625 0.640625 1.8125q0 0.9375 -0.28125 1.46875q-0.28125 0.53125 -0.8125 0.828125q-0.53125 0.296875 -1.171875 0.296875q-1.015625 0 -1.640625 -0.640625q-0.625 -0.65625 -0.625 -1.890625zm0.84375 0q0 0.9375 0.40625 1.40625q0.40625 0.453125 1.015625 0.453125q0.609375 0 1.015625 -0.46875q0.40625 -0.46875 0.40625 -1.421875q0 -0.890625 -0.40625 -1.34375q-0.40625 -0.46875 -1.015625 -0.46875q-0.609375 0 -1.015625 0.46875q-0.40625 0.453125 -0.40625 1.375zm4.640991 2.421875l0 -4.84375l0.75 0l0 0.6875q0.53125 -0.796875 1.53125 -0.796875q0.4375 0 0.796875 0.171875q0.375 0.15625 0.546875 0.40625q0.1875 0.25 0.265625 0.609375q0.046875 0.21875 0.046875 0.796875l0 2.96875l-0.828125 0l0 -2.9375q0 -0.5 -0.09375 -0.75q-0.09375 -0.25 -0.34375 -0.390625q-0.234375 -0.15625 -0.5625 -0.15625q-0.515625 0 -0.90625 0.328125q-0.375 0.328125 -0.375 1.265625l0 2.640625l-0.828125 0z" fill-rule="nonzero"/><path fill="#cfe2f3" d="m126.74869 91.84506l0 0c0 -2.4614105 1.9953613 -4.4567795 4.456772 -4.4567795l99.24393 0c1.1820068 0 2.3156128 0.4695511 3.151413 1.3053589c0.8358154 0.8358078 1.3053589 1.9694061 1.3053589 3.1514206l0 17.826591c0 2.4614182 -1.9953613 4.456787 -4.456772 4.456787l-99.24393 0c-2.4614105 0 -4.456772 -1.995369 -4.456772 -4.456787z" fill-rule="evenodd"/><path stroke="#000000" stroke-width="1.0" stroke-linejoin="round" stroke-linecap="butt" d="m126.74869 91.84506l0 0c0 -2.4614105 1.9953613 -4.4567795 4.456772 -4.4567795l99.24393 0c1.1820068 0 2.3156128 0.4695511 3.151413 1.3053589c0.8358154 0.8358078 1.3053589 1.9694061 1.3053589 3.1514206l0 17.826591c0 2.4614182 -1.9953613 4.456787 -4.456772 4.456787l-99.24393 0c-2.4614105 0 -4.456772 -1.995369 -4.456772 -4.456787z" fill-rule="evenodd"/><path fill="#000000" d="m165.21056 104.21836l0 -6.671875l2.515625 0q0.671875 0 1.015625 0.0625q0.5 0.078125 0.828125 0.3125q0.328125 0.21875 0.53125 0.640625q0.203125 0.40625 0.203125 0.90625q0 0.859375 -0.546875 1.453125q-0.53125 0.578125 -1.953125 0.578125l-1.703125 0l0 2.71875l-0.890625 0zm0.890625 -3.5l1.71875 0q0.859375 0 1.21875 -0.3125q0.359375 -0.328125 0.359375 -0.90625q0 -0.421875 -0.21875 -0.71875q-0.203125 -0.296875 -0.546875 -0.390625q-0.234375 -0.0625 -0.828125 -0.0625l-1.703125 0l0 2.390625zm8.3936615 3.5l0 -0.703125q-0.5625 0.8125 -1.53125 0.8125q-0.421875 0 -0.796875 -0.15625q-0.375 -0.171875 -0.5625 -0.421875q-0.171875 -0.25 -0.25 -0.609375q-0.046875 -0.234375 -0.046875 -0.765625l0 -3.0l0.828125 0l0 2.6875q0 0.640625 0.046875 0.875q0.078125 0.3125 0.328125 0.5q0.25 0.1875 0.609375 0.1875q0.375 0 0.703125 -0.1875q0.328125 -0.1875 0.453125 -0.515625q0.140625 -0.328125 0.140625 -0.953125l0 -2.59375l0.8125 0l0 4.84375l-0.734375 0zm2.7816162 0l-0.765625 0l0 -6.671875l0.828125 0l0 2.375q0.515625 -0.65625 1.3125 -0.65625q0.453125 0 0.84375 0.1875q0.40625 0.171875 0.65625 0.5q0.265625 0.328125 0.40625 0.796875q0.15625 0.453125 0.15625 0.984375q0 1.234375 -0.625 1.921875q-0.609375 0.671875 -1.46875 0.671875q-0.859375 0 -1.34375 -0.71875l0 0.609375zm-0.015625 -2.453125q0 0.875 0.234375 1.25q0.390625 0.640625 1.046875 0.640625q0.546875 0 0.9375 -0.46875q0.390625 -0.46875 0.390625 -1.390625q0 -0.953125 -0.375 -1.390625q-0.375 -0.453125 -0.90625 -0.453125q-0.546875 0 -0.9375 0.46875q-0.390625 0.453125 -0.390625 1.34375zm4.515991 2.453125l0 -6.671875l0.875 0l0 3.3125l3.3125 -3.3125l1.203125 0l-2.796875 2.703125l2.921875 3.96875l-1.171875 0l-2.375 -3.375l-1.09375 1.0625l0 2.3125l-0.875 0zm9.4561615 -1.5625l0.84375 0.109375q-0.1875 0.75 -0.734375 1.15625q-0.546875 0.40625 -1.390625 0.40625q-1.0625 0 -1.6875 -0.65625q-0.609375 -0.65625 -0.609375 -1.828125q0 -1.21875 0.625 -1.890625q0.625 -0.6875 1.625 -0.6875q0.984375 0 1.59375 0.671875q0.609375 0.65625 0.609375 1.859375q0 0.0625 0 0.21875l-3.609375 0q0.046875 0.796875 0.453125 1.21875q0.40625 0.421875 1.015625 0.421875q0.453125 0 0.765625 -0.234375q0.3125 -0.234375 0.5 -0.765625zm-2.6875 -1.328125l2.703125 0q-0.0625 -0.609375 -0.3125 -0.90625q-0.390625 -0.46875 -1.015625 -0.46875q-0.5625 0 -0.953125 0.375q-0.375 0.375 -0.421875 1.0zm4.531616 4.75l-0.09375 -0.765625q0.265625 0.078125 0.46875 0.078125q0.28125 0 0.4375 -0.09375q0.171875 -0.09375 0.265625 -0.265625q0.078125 -0.109375 0.25 -0.609375q0.03125 -0.0625 0.078125 -0.1875l-1.828125 -4.859375l0.875 0l1.015625 2.8125q0.1875 0.53125 0.34375 1.109375q0.140625 -0.5625 0.34375 -1.09375l1.03125 -2.828125l0.8125 0l-1.84375 4.921875q-0.28125 0.796875 -0.453125 1.09375q-0.21875 0.40625 -0.5 0.59375q-0.28125 0.203125 -0.671875 0.203125q-0.234375 0 -0.53125 -0.109375z" fill-rule="nonzero"/><path fill="#cfe2f3" d="m126.74869 138.89897l0 0c0 -2.4614105 1.9953613 -4.456787 4.456772 -4.456787l99.24393 0c1.1820068 0 2.3156128 0.46955872 3.151413 1.3053589c0.8358154 0.8358154 1.3053589 1.9694214 1.3053589 3.1514282l0 17.8266c0 2.4614105 -1.9953613 4.456772 -4.456772 4.456772l-99.24393 0c-2.4614105 0 -4.456772 -1.9953613 -4.456772 -4.456772z" fill-rule="evenodd"/><path stroke="#000000" stroke-width="1.0" stroke-linejoin="round" stroke-linecap="butt" d="m126.74869 138.89897l0 0c0 -2.4614105 1.9953613 -4.456787 4.456772 -4.456787l99.24393 0c1.1820068 0 2.3156128 0.46955872 3.151413 1.3053589c0.8358154 0.8358154 1.3053589 1.9694214 1.3053589 3.1514282l0 17.8266c0 2.4614105 -1.9953613 4.456772 -4.456772 4.456772l-99.24393 0c-2.4614105 0 -4.456772 -1.9953613 -4.456772 -4.456772z" fill-rule="evenodd"/><path fill="#000000" d="m174.50827 149.13164l0.828125 -0.078125q0.0625 0.5 0.28125 0.828125q0.21875 0.3125 0.671875 0.515625q0.453125 0.203125 1.015625 0.203125q0.515625 0 0.890625 -0.15625q0.390625 -0.15625 0.578125 -0.40625q0.1875 -0.265625 0.1875 -0.578125q0 -0.3125 -0.1875 -0.546875q-0.171875 -0.234375 -0.59375 -0.390625q-0.265625 -0.109375 -1.1875 -0.328125q-0.921875 -0.21875 -1.28125 -0.421875q-0.484375 -0.25 -0.71875 -0.609375q-0.234375 -0.375 -0.234375 -0.84375q0 -0.5 0.28125 -0.9375q0.296875 -0.4375 0.84375 -0.671875q0.546875 -0.234375 1.234375 -0.234375q0.734375 0 1.296875 0.25q0.578125 0.234375 0.875 0.703125q0.3125 0.453125 0.328125 1.046875l-0.84375 0.0625q-0.0625 -0.625 -0.46875 -0.953125q-0.390625 -0.328125 -1.15625 -0.328125q-0.796875 0 -1.171875 0.296875q-0.359375 0.296875 -0.359375 0.703125q0 0.359375 0.25 0.59375q0.265625 0.234375 1.328125 0.484375q1.078125 0.234375 1.484375 0.421875q0.578125 0.265625 0.859375 0.6875q0.28125 0.40625 0.28125 0.9375q0 0.53125 -0.3125 1.015625q-0.296875 0.46875 -0.875 0.734375q-0.5625 0.25 -1.28125 0.25q-0.90625 0 -1.515625 -0.265625q-0.609375 -0.265625 -0.96875 -0.78125q-0.34375 -0.53125 -0.359375 -1.203125zm6.4249115 -3.59375l0 -0.9375l0.8125 0l0 0.9375l-0.8125 0zm0 5.734375l0 -4.84375l0.8125 0l0 4.84375l-0.8125 0zm1.9161682 0.40625l0.796875 0.109375q0.046875 0.375 0.28125 0.546875q0.296875 0.21875 0.828125 0.21875q0.5625 0 0.875 -0.234375q0.3125 -0.21875 0.421875 -0.625q0.0625 -0.25 0.0625 -1.0625q-0.546875 0.640625 -1.34375 0.640625q-1.0 0 -1.546875 -0.71875q-0.546875 -0.71875 -0.546875 -1.734375q0 -0.6875 0.25 -1.265625q0.25 -0.59375 0.71875 -0.90625q0.484375 -0.328125 1.125 -0.328125q0.859375 0 1.421875 0.703125l0 -0.59375l0.75 0l0 4.1875q0 1.125 -0.234375 1.59375q-0.21875 0.484375 -0.71875 0.75q-0.5 0.28125 -1.234375 0.28125q-0.859375 0 -1.390625 -0.390625q-0.53125 -0.390625 -0.515625 -1.171875zm0.671875 -2.90625q0 0.953125 0.375 1.390625q0.390625 0.4375 0.953125 0.4375q0.5625 0 0.9375 -0.4375q0.390625 -0.4375 0.390625 -1.375q0 -0.875 -0.390625 -1.328125q-0.390625 -0.453125 -0.953125 -0.453125q-0.546875 0 -0.9375 0.453125q-0.375 0.4375 -0.375 1.3125z" fill-rule="nonzero"/><path fill="#93c47d" d="m205.83333 201.0853l78.07875 0l0 30.204727l-78.07875 0z" fill-rule="evenodd"/><path stroke="#000000" stroke-width="1.0" stroke-linejoin="round" stroke-linecap="butt" d="m205.83333 201.0853l78.07875 0l0 30.204727l-78.07875 0z" fill-rule="evenodd"/><path fill="#000000" d="m230.67052 221.26767l-4.0625 -10.484375l1.5 0l2.734375 7.609375q0.328125 0.921875 0.546875 1.71875q0.25 -0.859375 0.5625 -1.71875l2.84375 -7.609375l1.40625 0l-4.109375 10.484375l-1.421875 0zm11.013229 -2.453125l1.328125 0.171875q-0.3125 1.171875 -1.171875 1.8125q-0.84375 0.640625 -2.171875 0.640625q-1.671875 0 -2.65625 -1.015625q-0.96875 -1.03125 -0.96875 -2.890625q0 -1.921875 0.984375 -2.96875q1.0 -1.0625 2.578125 -1.0625q1.515625 0 2.484375 1.03125q0.96875 1.03125 0.96875 2.921875q0 0.109375 -0.015625 0.34375l-5.65625 0q0.0625 1.25 0.703125 1.921875q0.640625 0.65625 1.59375 0.65625q0.703125 0 1.203125 -0.359375q0.5 -0.375 0.796875 -1.203125zm-4.234375 -2.078125l4.25 0q-0.09375 -0.953125 -0.484375 -1.4375q-0.625 -0.75 -1.609375 -0.75q-0.875 0 -1.484375 0.59375q-0.609375 0.59375 -0.671875 1.59375zm7.166733 4.53125l0 -7.59375l1.15625 0l0 1.140625q0.453125 -0.796875 0.828125 -1.046875q0.375 -0.265625 0.8125 -0.265625q0.65625 0 1.328125 0.40625l-0.4375 1.203125q-0.46875 -0.28125 -0.953125 -0.28125q-0.421875 0 -0.765625 0.25q-0.328125 0.25 -0.46875 0.703125q-0.21875 0.6875 -0.21875 1.5l0 3.984375l-1.28125 0zm4.8962708 -9.015625l0 -1.46875l1.296875 0l0 1.46875l-1.296875 0zm0 9.015625l0 -7.59375l1.296875 0l0 7.59375l-1.296875 0zm3.5686493 0l0 -6.59375l-1.140625 0l0 -1.0l1.140625 0l0 -0.8125q0 -0.765625 0.125 -1.140625q0.1875 -0.5 0.65625 -0.8125q0.46875 -0.3125 1.3125 -0.3125q0.546875 0 1.203125 0.125l-0.1875 1.125q-0.40625 -0.0625 -0.765625 -0.0625q-0.578125 0 -0.828125 0.25q-0.234375 0.25 -0.234375 0.9375l0 0.703125l1.46875 0l0 1.0l-1.46875 0l0 6.59375l-1.28125 0zm3.696991 2.921875l-0.140625 -1.203125q0.421875 0.109375 0.734375 0.109375q0.4375 0 0.6875 -0.140625q0.265625 -0.140625 0.421875 -0.40625q0.125 -0.1875 0.390625 -0.953125q0.046875 -0.109375 0.125 -0.3125l-2.890625 -7.609375l1.390625 0l1.578125 4.390625q0.3125 0.84375 0.546875 1.765625q0.234375 -0.890625 0.53125 -1.734375l1.625 -4.421875l1.296875 0l-2.890625 7.71875q-0.46875 1.25 -0.734375 1.734375q-0.34375 0.625 -0.78125 0.921875q-0.4375 0.296875 -1.0625 0.296875q-0.375 0 -0.828125 -0.15625z" fill-rule="nonzero"/><path fill="#cfe2f3" d="m254.31036 91.84516l0 0c0 -2.4614105 1.9953613 -4.4567795 4.456787 -4.4567795l99.2439 0c1.1820374 0 2.3156128 0.4695511 3.1514282 1.3053589c0.8358154 0.8358078 1.3053589 1.9694138 1.3053589 3.1514206l0 17.8266c0 2.4614105 -1.9953613 4.4567795 -4.456787 4.4567795l-99.2439 0c-2.4614258 0 -4.456787 -1.995369 -4.456787 -4.4567795z" fill-rule="evenodd"/><path stroke="#000000" stroke-width="1.0" stroke-linejoin="round" stroke-linecap="butt" d="m254.31036 91.84516l0 0c0 -2.4614105 1.9953613 -4.4567795 4.456787 -4.4567795l99.2439 0c1.1820374 0 2.3156128 0.4695511 3.1514282 1.3053589c0.8358154 0.8358078 1.3053589 1.9694138 1.3053589 3.1514206l0 17.8266c0 2.4614105 -1.9953613 4.4567795 -4.456787 4.4567795l-99.2439 0c-2.4614258 0 -4.456787 -1.995369 -4.456787 -4.4567795z" fill-rule="evenodd"/><path fill="#000000" d="m290.67157 104.21846l-1.78125 -6.671875l0.90625 0l1.015625 4.375q0.171875 0.6875 0.28125 1.359375q0.265625 -1.0625 0.3125 -1.234375l1.265625 -4.5l1.0625 0l0.953125 3.375q0.359375 1.25 0.53125 2.359375q0.125 -0.625 0.328125 -1.453125l1.046875 -4.28125l0.890625 0l-1.828125 6.671875l-0.859375 0l-1.40625 -5.09375q-0.171875 -0.625 -0.203125 -0.78125q-0.109375 0.46875 -0.203125 0.78125l-1.421875 5.09375l-0.890625 0zm7.0575867 -2.421875q0 -1.34375 0.75 -1.984375q0.625 -0.546875 1.515625 -0.546875q1.0 0 1.625 0.65625q0.640625 0.65625 0.640625 1.8125q0 0.9375 -0.28125 1.46875q-0.28125 0.53125 -0.8125 0.828125q-0.53125 0.296875 -1.171875 0.296875q-1.015625 0 -1.640625 -0.640625q-0.625 -0.65625 -0.625 -1.890625zm0.84375 0q0 0.9375 0.40625 1.40625q0.40625 0.453125 1.015625 0.453125q0.609375 0 1.015625 -0.46875q0.40625 -0.46875 0.40625 -1.421875q0 -0.890625 -0.40625 -1.34375q-0.40625 -0.46875 -1.015625 -0.46875q-0.609375 0 -1.015625 0.46875q-0.40625 0.453125 -0.40625 1.375zm4.640991 2.421875l0 -4.84375l0.734375 0l0 0.734375q0.28125 -0.515625 0.515625 -0.671875q0.25 -0.171875 0.53125 -0.171875q0.421875 0 0.84375 0.265625l-0.28125 0.765625q-0.296875 -0.171875 -0.609375 -0.171875q-0.265625 0 -0.484375 0.15625q-0.203125 0.15625 -0.296875 0.453125q-0.140625 0.4375 -0.140625 0.953125l0 2.53125l-0.8125 0zm3.1219482 0l0 -6.671875l0.8125 0l0 3.796875l1.9375 -1.96875l1.0625 0l-1.84375 1.796875l2.03125 3.046875l-1.015625 0l-1.59375 -2.46875l-0.578125 0.546875l0 1.921875l-0.8125 0zm7.9609375 -1.5625l0.84375 0.109375q-0.1875 0.75 -0.734375 1.15625q-0.546875 0.40625 -1.390625 0.40625q-1.0625 0 -1.6875 -0.65625q-0.609375 -0.65625 -0.609375 -1.828125q0 -1.21875 0.625 -1.890625q0.625 -0.6875 1.625 -0.6875q0.984375 0 1.59375 0.671875q0.609375 0.65625 0.609375 1.859375q0 0.0625 0 0.21875l-3.609375 0q0.046875 0.796875 0.453125 1.21875q0.40625 0.421875 1.015625 0.421875q0.453125 0 0.765625 -0.234375q0.3125 -0.234375 0.5 -0.765625zm-2.6875 -1.328125l2.703125 0q-0.0625 -0.609375 -0.3125 -0.90625q-0.390625 -0.46875 -1.015625 -0.46875q-0.5625 0 -0.953125 0.375q-0.375 0.375 -0.421875 1.0zm4.562866 2.890625l0 -4.84375l0.734375 0l0 0.734375q0.28125 -0.515625 0.515625 -0.671875q0.25 -0.171875 0.53125 -0.171875q0.421875 0 0.84375 0.265625l-0.28125 0.765625q-0.296875 -0.171875 -0.609375 -0.171875q-0.265625 0 -0.484375 0.15625q-0.203125 0.15625 -0.296875 0.453125q-0.140625 0.4375 -0.140625 0.953125l0 2.53125l-0.8125 0zm3.3719788 0l0 -6.671875l0.875 0l0 6.671875l-0.875 0zm2.4353943 0l0 -6.671875l2.296875 0q0.78125 0 1.1875 0.09375q0.578125 0.125 0.984375 0.46875q0.53125 0.453125 0.78125 1.15625q0.265625 0.6875 0.265625 1.578125q0 0.765625 -0.171875 1.359375q-0.171875 0.578125 -0.453125 0.96875q-0.28125 0.375 -0.609375 0.59375q-0.328125 0.21875 -0.796875 0.34375q-0.46875 0.109375 -1.078125 0.109375l-2.40625 0zm0.890625 -0.78125l1.421875 0q0.65625 0 1.03125 -0.125q0.375 -0.125 0.609375 -0.34375q0.3125 -0.328125 0.484375 -0.84375q0.171875 -0.53125 0.171875 -1.296875q0 -1.046875 -0.34375 -1.609375q-0.34375 -0.5625 -0.828125 -0.75q-0.359375 -0.140625 -1.15625 -0.140625l-1.390625 0l0 5.109375z" fill-rule="nonzero"/><path fill="#000000" fill-opacity="0.0" d="m126.74869 100.75836c-12.500038 0 -34.885902 28.858261 -25.000076 57.716537c9.885834 28.858261 52.04335 57.716537 104.086685 57.716537" fill-rule="evenodd"/><path stroke="#000000" stroke-width="1.0" stroke-linejoin="round" stroke-linecap="butt" d="m126.74869 100.758354c-12.500038 0 -34.885902 28.858269 -25.000069 57.71653c4.9429092 14.429153 17.95375 28.858292 36.234276 39.68013c9.140259 5.4109344 19.59793 9.920029 31.02327 13.076401c5.7126617 1.5782013 11.667252 2.8181915 17.820007 3.6636658c3.0763855 0.42271423 6.2023163 0.7468109 9.372314 0.96520996c0.792511 0.054611206 1.5877686 0.10261536 2.3856812 0.14389038c0.39897156 0.020645142 0.79859924 0.039596558 1.198883 0.056884766l0.053619385 0.0020751953" fill-rule="evenodd"/><path fill="#000000" stroke="#000000" stroke-width="1.0" stroke-linecap="butt" d="m199.80136 217.7145l4.5723724 -1.5543213l-4.5017395 -1.7483826z" fill-rule="evenodd"/><path fill="#000000" fill-opacity="0.0" d="m180.82742 161.18234c0 9.975784 16.007874 14.963379 32.015747 19.951569c16.007874 4.9881744 32.015747 9.9769745 32.015747 19.953949" fill-rule="evenodd"/><path stroke="#000000" stroke-width="1.0" stroke-linejoin="round" stroke-linecap="butt" d="m180.82742 161.18234c0 9.975784 16.007874 14.963364 32.015747 19.951553c8.003937 2.4940948 16.007874 4.9883423 22.010834 8.106186c3.00148 1.5589294 5.502701 3.2737427 7.2535706 5.222397c0.21884155 0.24357605 0.42599487 0.4908142 0.62091064 0.7418518c0.048721313 0.06277466 0.09667969 0.12576294 0.14389038 0.18899536l0.019195557 0.026245117" fill-rule="evenodd"/><path fill="#000000" stroke="#000000" stroke-width="1.0" stroke-linecap="butt" d="m241.33115 195.96117l3.0484314 3.7456207l0.072402954 -4.8287964z" fill-rule="evenodd"/><path fill="#cfe2f3" d="m411.5958 60.937096l0 0c0 -2.4614105 1.9953613 -4.4567795 4.456787 -4.4567795l82.96045 0c1.1820068 0 2.3156128 0.4695511 3.1514282 1.3053589c0.8358154 0.8358116 1.3053589 1.96941 1.3053589 3.1514206l0 17.826591c0 2.4614182 -1.9953613 4.456787 -4.456787 4.456787l-82.96045 0c-2.4614258 0 -4.456787 -1.995369 -4.456787 -4.456787z" fill-rule="evenodd"/><path stroke="#000000" stroke-width="1.0" stroke-linejoin="round" stroke-linecap="butt" d="m411.5958 60.937096l0 0c0 -2.4614105 1.9953613 -4.4567795 4.456787 -4.4567795l82.96045 0c1.1820068 0 2.3156128 0.4695511 3.1514282 1.3053589c0.8358154 0.8358116 1.3053589 1.96941 1.3053589 3.1514206l0 17.826591c0 2.4614182 -1.9953613 4.456787 -4.456787 4.456787l-82.96045 0c-2.4614258 0 -4.456787 -1.995369 -4.456787 -4.456787z" fill-rule="evenodd"/><path fill="#000000" d="m426.47125 70.685394l0 -0.78125l2.828125 0l0 2.484375q-0.65625 0.515625 -1.34375 0.78125q-0.6875 0.25 -1.421875 0.25q-0.984375 0 -1.796875 -0.421875q-0.796875 -0.421875 -1.203125 -1.21875q-0.40625 -0.796875 -0.40625 -1.78125q0 -0.96875 0.40625 -1.8125q0.40625 -0.84375 1.171875 -1.25q0.765625 -0.421875 1.765625 -0.421875q0.71875 0 1.296875 0.234375q0.59375 0.234375 0.921875 0.65625q0.34375 0.421875 0.515625 1.09375l-0.796875 0.21875q-0.15625 -0.5 -0.390625 -0.796875q-0.21875 -0.296875 -0.640625 -0.46875q-0.40625 -0.171875 -0.90625 -0.171875q-0.609375 0 -1.046875 0.1875q-0.4375 0.171875 -0.71875 0.484375q-0.265625 0.296875 -0.421875 0.65625q-0.25 0.625 -0.25 1.34375q0 0.890625 0.296875 1.5q0.3125 0.59375 0.90625 0.890625q0.59375 0.28125 1.25 0.28125q0.578125 0 1.125 -0.21875q0.546875 -0.21875 0.828125 -0.46875l0 -1.25l-1.96875 0zm7.333832 1.0625l0.84375 0.109375q-0.1875 0.75 -0.734375 1.15625q-0.546875 0.40625 -1.390625 0.40625q-1.0625 0 -1.6875 -0.65625q-0.609375 -0.65625 -0.609375 -1.828125q0 -1.21875 0.625 -1.890625q0.625 -0.6875 1.625 -0.6875q0.984375 0 1.59375 0.671875q0.609375 0.65625 0.609375 1.859375q0 0.0625 0 0.21875l-3.609375 0q0.046875 0.796875 0.453125 1.21875q0.40625 0.421875 1.015625 0.421875q0.453125 0 0.765625 -0.234375q0.3125 -0.234375 0.5 -0.765625zm-2.6875 -1.328125l2.703125 0q-0.0625 -0.609375 -0.3125 -0.90625q-0.390625 -0.46875 -1.015625 -0.46875q-0.5625 0 -0.953125 0.375q-0.375 0.375 -0.421875 1.0zm6.359741 2.15625l0.109375 0.71875q-0.34375 0.078125 -0.609375 0.078125q-0.453125 0 -0.703125 -0.140625q-0.234375 -0.140625 -0.34375 -0.359375q-0.09375 -0.234375 -0.09375 -0.984375l0 -2.78125l-0.609375 0l0 -0.640625l0.609375 0l0 -1.1875l0.8125 -0.5l0 1.6875l0.828125 0l0 0.640625l-0.828125 0l0 2.828125q0 0.359375 0.046875 0.46875q0.046875 0.09375 0.140625 0.15625q0.09375 0.046875 0.28125 0.046875q0.140625 0 0.359375 -0.03125zm4.667694 0.734375l-1.78125 -6.671875l0.90625 0l1.015625 4.375q0.171875 0.6875 0.28125 1.359375q0.265625 -1.0625 0.3125 -1.234375l1.265625 -4.5l1.0625 0l0.953125 3.375q0.359375 1.25 0.53125 2.359375q0.125 -0.625 0.328125 -1.453125l1.046875 -4.28125l0.890625 0l-1.828125 6.671875l-0.859375 0l-1.40625 -5.09375q-0.171875 -0.625 -0.203125 -0.78125q-0.109375 0.46875 -0.203125 0.78125l-1.421875 5.09375l-0.890625 0zm7.0575867 -2.421875q0 -1.34375 0.75 -1.984375q0.625 -0.546875 1.515625 -0.546875q1.0 0 1.625 0.65625q0.640625 0.65625 0.640625 1.8125q0 0.9375 -0.28125 1.46875q-0.28125 0.53125 -0.8125 0.828125q-0.53125 0.296875 -1.171875 0.296875q-1.015625 0 -1.640625 -0.640625q-0.625 -0.65625 -0.625 -1.890625zm0.84375 0q0 0.9375 0.40625 1.40625q0.40625 0.453125 1.015625 0.453125q0.609375 0 1.015625 -0.46875q0.40625 -0.46875 0.40625 -1.421875q0 -0.890625 -0.40625 -1.34375q-0.40625 -0.46875 -1.015625 -0.46875q-0.609375 0 -1.015625 0.46875q-0.40625 0.453125 -0.40625 1.375zm4.640991 2.421875l0 -4.84375l0.734375 0l0 0.734375q0.28125 -0.515625 0.515625 -0.671875q0.25 -0.171875 0.53125 -0.171875q0.421875 0 0.84375 0.265625l-0.28125 0.765625q-0.296875 -0.171875 -0.609375 -0.171875q-0.265625 0 -0.484375 0.15625q-0.203125 0.15625 -0.296875 0.453125q-0.140625 0.4375 -0.140625 0.953125l0 2.53125l-0.8125 0zm3.1219788 0l0 -6.671875l0.8125 0l0 3.796875l1.9375 -1.96875l1.0625 0l-1.84375 1.796875l2.03125 3.046875l-1.015625 0l-1.59375 -2.46875l-0.578125 0.546875l0 1.921875l-0.8125 0zm7.9609375 -1.5625l0.84375 0.109375q-0.1875 0.75 -0.734375 1.15625q-0.546875 0.40625 -1.390625 0.40625q-1.0625 0 -1.6875 -0.65625q-0.609375 -0.65625 -0.609375 -1.828125q0 -1.21875 0.625 -1.890625q0.625 -0.6875 1.625 -0.6875q0.984375 0 1.59375 0.671875q0.609375 0.65625 0.609375 1.859375q0 0.0625 0 0.21875l-3.609375 0q0.046875 0.796875 0.453125 1.21875q0.40625 0.421875 1.015625 0.421875q0.453125 0 0.765625 -0.234375q0.3125 -0.234375 0.5 -0.765625zm-2.6875 -1.328125l2.703125 0q-0.0625 -0.609375 -0.3125 -0.90625q-0.390625 -0.46875 -1.015625 -0.46875q-0.5625 0 -0.953125 0.375q-0.375 0.375 -0.421875 1.0zm4.562866 2.890625l0 -4.84375l0.734375 0l0 0.734375q0.28125 -0.515625 0.515625 -0.671875q0.25 -0.171875 0.53125 -0.171875q0.421875 0 0.84375 0.265625l-0.28125 0.765625q-0.296875 -0.171875 -0.609375 -0.171875q-0.265625 0 -0.484375 0.15625q-0.203125 0.15625 -0.296875 0.453125q-0.140625 0.4375 -0.140625 0.953125l0 2.53125l-0.8125 0zm5.807373 0l0 -6.671875l2.296875 0q0.78125 0 1.1875 0.09375q0.578125 0.125 0.984375 0.46875q0.53125 0.453125 0.78125 1.15625q0.265625 0.6875 0.265625 1.578125q0 0.765625 -0.171875 1.359375q-0.171875 0.578125 -0.453125 0.96875q-0.28125 0.375 -0.609375 0.59375q-0.328125 0.21875 -0.796875 0.34375q-0.46875 0.109375 -1.078125 0.109375l-2.40625 0zm0.890625 -0.78125l1.421875 0q0.65625 0 1.03125 -0.125q0.375 -0.125 0.609375 -0.34375q0.3125 -0.328125 0.484375 -0.84375q0.171875 -0.53125 0.171875 -1.296875q0 -1.046875 -0.34375 -1.609375q-0.34375 -0.5625 -0.828125 -0.75q-0.359375 -0.140625 -1.15625 -0.140625l-1.390625 0l0 5.109375zm8.892731 0.1875q-0.453125 0.390625 -0.875 0.546875q-0.421875 0.15625 -0.90625 0.15625q-0.796875 0 -1.21875 -0.390625q-0.421875 -0.390625 -0.421875 -1.0q0 -0.34375 0.15625 -0.640625q0.15625 -0.296875 0.421875 -0.46875q0.265625 -0.1875 0.59375 -0.28125q0.234375 -0.0625 0.71875 -0.109375q1.0 -0.125 1.46875 -0.28125q0 -0.171875 0 -0.21875q0 -0.5 -0.234375 -0.703125q-0.3125 -0.28125 -0.921875 -0.28125q-0.578125 0 -0.859375 0.203125q-0.28125 0.203125 -0.40625 0.71875l-0.796875 -0.109375q0.109375 -0.515625 0.359375 -0.828125q0.25 -0.328125 0.71875 -0.5q0.46875 -0.171875 1.09375 -0.171875q0.625 0 1.0 0.15625q0.390625 0.140625 0.578125 0.359375q0.1875 0.21875 0.25 0.5625q0.046875 0.203125 0.046875 0.75l0 1.09375q0 1.140625 0.046875 1.453125q0.0625 0.296875 0.21875 0.578125l-0.859375 0q-0.125 -0.25 -0.171875 -0.59375zm-0.0625 -1.828125q-0.453125 0.171875 -1.34375 0.296875q-0.5 0.078125 -0.71875 0.171875q-0.203125 0.09375 -0.3125 0.265625q-0.109375 0.171875 -0.109375 0.390625q0 0.328125 0.234375 0.546875q0.25 0.21875 0.734375 0.21875q0.46875 0 0.828125 -0.203125q0.375 -0.21875 0.5625 -0.578125q0.125 -0.265625 0.125 -0.8125l0 -0.296875zm3.8909912 1.6875l0.109375 0.71875q-0.34375 0.078125 -0.609375 0.078125q-0.453125 0 -0.703125 -0.140625q-0.234375 -0.140625 -0.34375 -0.359375q-0.09375 -0.234375 -0.09375 -0.984375l0 -2.78125l-0.609375 0l0 -0.640625l0.609375 0l0 -1.1875l0.8125 -0.5l0 1.6875l0.828125 0l0 0.640625l-0.828125 0l0 2.828125q0 0.359375 0.046875 0.46875q0.046875 0.09375 0.140625 0.15625q0.09375 0.046875 0.28125 0.046875q0.140625 0 0.359375 -0.03125zm3.9510193 0.140625q-0.453125 0.390625 -0.875 0.546875q-0.421875 0.15625 -0.90625 0.15625q-0.796875 0 -1.21875 -0.390625q-0.421875 -0.390625 -0.421875 -1.0q0 -0.34375 0.15625 -0.640625q0.15625 -0.296875 0.421875 -0.46875q0.265625 -0.1875 0.59375 -0.28125q0.234375 -0.0625 0.71875 -0.109375q1.0 -0.125 1.46875 -0.28125q0 -0.171875 0 -0.21875q0 -0.5 -0.234375 -0.703125q-0.3125 -0.28125 -0.921875 -0.28125q-0.578125 0 -0.859375 0.203125q-0.28125 0.203125 -0.40625 0.71875l-0.796875 -0.109375q0.109375 -0.515625 0.359375 -0.828125q0.25 -0.328125 0.71875 -0.5q0.46875 -0.171875 1.09375 -0.171875q0.625 0 1.0 0.15625q0.390625 0.140625 0.578125 0.359375q0.1875 0.21875 0.25 0.5625q0.046875 0.203125 0.046875 0.75l0 1.09375q0 1.140625 0.046875 1.453125q0.0625 0.296875 0.21875 0.578125l-0.859375 0q-0.125 -0.25 -0.171875 -0.59375zm-0.0625 -1.828125q-0.453125 0.171875 -1.34375 0.296875q-0.5 0.078125 -0.71875 0.171875q-0.203125 0.09375 -0.3125 0.265625q-0.109375 0.171875 -0.109375 0.390625q0 0.328125 0.234375 0.546875q0.25 0.21875 0.734375 0.21875q0.46875 0 0.828125 -0.203125q0.375 -0.21875 0.5625 -0.578125q0.125 -0.265625 0.125 -0.8125l0 -0.296875z" fill-rule="nonzero"/><path fill="#000000" fill-opacity="0.0" d="m362.46783 100.75846c12.282013 0 18.422272 -7.724411 24.563995 -15.448822c6.1417236 -7.7244034 12.284943 -15.448814 24.569885 -15.448814" fill-rule="evenodd"/><path stroke="#000000" stroke-width="1.0" stroke-linejoin="round" stroke-linecap="butt" d="m362.46783 100.75846c12.282013 0 18.422272 -7.724411 24.563995 -15.448822c3.0708618 -3.8622055 6.14209 -7.724411 9.981201 -10.621063c1.9195862 -1.4483261 4.031128 -2.6552658 6.4306335 -3.500122c0.5998535 -0.21121216 1.2177124 -0.39980316 1.8550415 -0.56386566l0.3416443 -0.083992004" fill-rule="evenodd"/><path fill="#000000" stroke="#000000" stroke-width="1.0" stroke-linecap="butt" d="m405.82748 72.181694l4.321747 -2.155243l-4.6960144 -1.1269531z" fill-rule="evenodd"/><path fill="#cfe2f3" d="m411.5958 102.0014l0 0c0 -2.4614182 1.9953613 -4.456787 4.456787 -4.456787l82.96045 0c1.1820068 0 2.3156128 0.46955872 3.1514282 1.3053665c0.8358154 0.8358078 1.3053589 1.9694061 1.3053589 3.1514206l0 17.826591c0 2.4614105 -1.9953613 4.4567795 -4.456787 4.4567795l-82.96045 0c-2.4614258 0 -4.456787 -1.995369 -4.456787 -4.4567795z" fill-rule="evenodd"/><path stroke="#000000" stroke-width="1.0" stroke-linejoin="round" stroke-linecap="butt" d="m411.5958 102.0014l0 0c0 -2.4614182 1.9953613 -4.456787 4.456787 -4.456787l82.96045 0c1.1820068 0 2.3156128 0.46955872 3.1514282 1.3053665c0.8358154 0.8358078 1.3053589 1.9694061 1.3053589 3.1514206l0 17.826591c0 2.4614105 -1.9953613 4.4567795 -4.456787 4.4567795l-82.96045 0c-2.4614258 0 -4.456787 -1.995369 -4.456787 -4.4567795z" fill-rule="evenodd"/><path fill="#000000" d="m440.35446 111.124695q0 -1.671875 0.890625 -2.609375q0.890625 -0.9375 2.296875 -0.9375q0.9375 0 1.671875 0.453125q0.75 0.4375 1.140625 1.234375q0.390625 0.78125 0.390625 1.78125q0 1.015625 -0.421875 1.828125q-0.40625 0.796875 -1.15625 1.203125q-0.75 0.40625 -1.625 0.40625q-0.9375 0 -1.6875 -0.453125q-0.734375 -0.453125 -1.125 -1.234375q-0.375 -0.796875 -0.375 -1.671875zm0.90625 0.015625q0 1.203125 0.640625 1.90625q0.65625 0.6875 1.640625 0.6875q1.0 0 1.640625 -0.703125q0.640625 -0.703125 0.640625 -1.984375q0 -0.828125 -0.28125 -1.421875q-0.265625 -0.609375 -0.796875 -0.9375q-0.53125 -0.34375 -1.1875 -0.34375q-0.9375 0 -1.625 0.640625q-0.671875 0.640625 -0.671875 2.15625zm9.677612 3.234375l0 -0.703125q-0.5625 0.8125 -1.53125 0.8125q-0.421875 0 -0.796875 -0.15625q-0.375 -0.171875 -0.5625 -0.421875q-0.171875 -0.25 -0.25 -0.609375q-0.046875 -0.234375 -0.046875 -0.765625l0 -3.0l0.828125 0l0 2.6875q0 0.640625 0.046875 0.875q0.078125 0.3125 0.328125 0.5q0.25 0.1875 0.609375 0.1875q0.375 0 0.703125 -0.1875q0.328125 -0.1875 0.453125 -0.515625q0.140625 -0.328125 0.140625 -0.953125l0 -2.59375l0.8125 0l0 4.84375l-0.734375 0zm3.8128662 -0.734375l0.109375 0.71875q-0.34375 0.078125 -0.609375 0.078125q-0.453125 0 -0.703125 -0.140625q-0.234375 -0.140625 -0.34375 -0.359375q-0.09375 -0.234375 -0.09375 -0.984375l0 -2.78125l-0.609375 0l0 -0.640625l0.609375 0l0 -1.1875l0.8125 -0.5l0 1.6875l0.828125 0l0 0.640625l-0.828125 0l0 2.828125q0 0.359375 0.046875 0.46875q0.046875 0.09375 0.140625 0.15625q0.09375 0.046875 0.28125 0.046875q0.140625 0 0.359375 -0.03125zm0.7947693 2.59375l0 -6.703125l0.75 0l0 0.640625q0.265625 -0.375 0.59375 -0.5625q0.34375 -0.1875 0.8125 -0.1875q0.625 0 1.09375 0.328125q0.46875 0.3125 0.703125 0.90625q0.25 0.578125 0.25 1.265625q0 0.734375 -0.265625 1.328125q-0.265625 0.59375 -0.78125 0.921875q-0.5 0.3125 -1.0625 0.3125q-0.40625 0 -0.734375 -0.171875q-0.328125 -0.171875 -0.53125 -0.4375l0 2.359375l-0.828125 0zm0.75 -4.25q0 0.9375 0.375 1.390625q0.375 0.4375 0.921875 0.4375q0.546875 0 0.921875 -0.453125q0.390625 -0.46875 0.390625 -1.4375q0 -0.9375 -0.375 -1.390625q-0.375 -0.453125 -0.90625 -0.453125q-0.53125 0 -0.9375 0.484375q-0.390625 0.484375 -0.390625 1.421875zm4.140991 -0.03125q0 -1.34375 0.75 -1.984375q0.625 -0.546875 1.515625 -0.546875q1.0 0 1.625 0.65625q0.640625 0.65625 0.640625 1.8125q0 0.9375 -0.28125 1.46875q-0.28125 0.53125 -0.8125 0.828125q-0.53125 0.296875 -1.171875 0.296875q-1.015625 0 -1.640625 -0.640625q-0.625 -0.65625 -0.625 -1.890625zm0.84375 0q0 0.9375 0.40625 1.40625q0.40625 0.453125 1.015625 0.453125q0.609375 0 1.015625 -0.46875q0.40625 -0.46875 0.40625 -1.421875q0 -0.890625 -0.40625 -1.34375q-0.40625 -0.46875 -1.015625 -0.46875q-0.609375 0 -1.015625 0.46875q-0.40625 0.453125 -0.40625 1.375zm4.656616 -3.3125l0 -0.9375l0.8125 0l0 0.9375l-0.8125 0zm0 5.734375l0 -4.84375l0.8125 0l0 4.84375l-0.8125 0zm2.0567932 0l0 -4.84375l0.75 0l0 0.6875q0.53125 -0.796875 1.53125 -0.796875q0.4375 0 0.796875 0.171875q0.375 0.15625 0.546875 0.40625q0.1875 0.25 0.265625 0.609375q0.046875 0.21875 0.046875 0.796875l0 2.96875l-0.828125 0l0 -2.9375q0 -0.5 -0.09375 -0.75q-0.09375 -0.25 -0.34375 -0.390625q-0.234375 -0.15625 -0.5625 -0.15625q-0.515625 0 -0.90625 0.328125q-0.375 0.328125 -0.375 1.265625l0 2.640625l-0.828125 0zm6.984741 -0.734375l0.109375 0.71875q-0.34375 0.078125 -0.609375 0.078125q-0.453125 0 -0.703125 -0.140625q-0.234375 -0.140625 -0.34375 -0.359375q-0.09375 -0.234375 -0.09375 -0.984375l0 -2.78125l-0.609375 0l0 -0.640625l0.609375 0l0 -1.1875l0.8125 -0.5l0 1.6875l0.828125 0l0 0.640625l-0.828125 0l0 2.828125q0 0.359375 0.046875 0.46875q0.046875 0.09375 0.140625 0.15625q0.09375 0.046875 0.28125 0.046875q0.140625 0 0.359375 -0.03125z" fill-rule="nonzero"/><path fill="#dd7e6b" d="m418.49344 143.06439l0 0c0 -2.4614105 1.9953613 -4.456787 4.456787 -4.456787l69.16516 0c1.1820068 0 2.3156128 0.46955872 3.1514282 1.3053741c0.8358154 0.8358002 1.3053589 1.9694061 1.3053589 3.151413l0 17.8266c0 2.4614105 -1.9953613 4.456772 -4.456787 4.456772l-69.16516 0c-2.4614258 0 -4.456787 -1.9953613 -4.456787 -4.456772z" fill-rule="evenodd"/><path stroke="#000000" stroke-width="1.0" stroke-linejoin="round" stroke-linecap="butt" d="m418.49344 143.06439l0 0c0 -2.4614105 1.9953613 -4.456787 4.456787 -4.456787l69.16516 0c1.1820068 0 2.3156128 0.46955872 3.1514282 1.3053741c0.8358154 0.8358002 1.3053589 1.9694061 1.3053589 3.151413l0 17.8266c0 2.4614105 -1.9953613 4.456772 -4.456787 4.456772l-69.16516 0c-2.4614258 0 -4.456787 -1.9953613 -4.456787 -4.456772z" fill-rule="evenodd"/><path fill="#ffffff" d="m436.21567 149.93768l0 -6.671875l2.515625 0q0.671875 0 1.015625 0.0625q0.5 0.078125 0.828125 0.3125q0.328125 0.21875 0.53125 0.640625q0.203125 0.40625 0.203125 0.90625q0 0.859375 -0.546875 1.453125q-0.53125 0.578125 -1.953125 0.578125l-1.703125 0l0 2.71875l-0.890625 0zm0.890625 -3.5l1.71875 0q0.859375 0 1.21875 -0.3125q0.359375 -0.328125 0.359375 -0.90625q0 -0.421875 -0.21875 -0.71875q-0.203125 -0.296875 -0.546875 -0.390625q-0.234375 -0.0625 -0.828125 -0.0625l-1.703125 0l0 2.390625zm8.393646 3.5l0 -0.703125q-0.5625 0.8125 -1.53125 0.8125q-0.421875 0 -0.796875 -0.15625q-0.375 -0.171875 -0.5625 -0.421875q-0.171875 -0.25 -0.25 -0.609375q-0.046875 -0.234375 -0.046875 -0.765625l0 -3.0l0.828125 0l0 2.6875q0 0.640625 0.046875 0.875q0.078125 0.3125 0.328125 0.5q0.25 0.1875 0.609375 0.1875q0.375 0 0.703125 -0.1875q0.328125 -0.1875 0.453125 -0.515625q0.140625 -0.328125 0.140625 -0.953125l0 -2.59375l0.8125 0l0 4.84375l-0.734375 0zm2.7816162 0l-0.765625 0l0 -6.671875l0.828125 0l0 2.375q0.515625 -0.65625 1.3125 -0.65625q0.453125 0 0.84375 0.1875q0.40625 0.171875 0.65625 0.5q0.265625 0.328125 0.40625 0.796875q0.15625 0.453125 0.15625 0.984375q0 1.234375 -0.625 1.921875q-0.609375 0.671875 -1.46875 0.671875q-0.859375 0 -1.34375 -0.71875l0 0.609375zm-0.015625 -2.453125q0 0.875 0.234375 1.25q0.390625 0.640625 1.046875 0.640625q0.546875 0 0.9375 -0.46875q0.390625 -0.46875 0.390625 -1.390625q0 -0.953125 -0.375 -1.390625q-0.375 -0.453125 -0.90625 -0.453125q-0.546875 0 -0.9375 0.46875q-0.390625 0.453125 -0.390625 1.34375zm4.422241 2.453125l0 -6.671875l0.828125 0l0 6.671875l-0.828125 0zm2.1036682 -5.734375l0 -0.9375l0.8125 0l0 0.9375l-0.8125 0zm0 5.734375l0 -4.84375l0.8125 0l0 4.84375l-0.8125 0zm5.213043 -1.765625l0.8125 0.09375q-0.125 0.84375 -0.671875 1.3125q-0.546875 0.46875 -1.34375 0.46875q-0.984375 0 -1.59375 -0.640625q-0.609375 -0.65625 -0.609375 -1.875q0 -0.78125 0.265625 -1.359375q0.265625 -0.59375 0.78125 -0.890625q0.53125 -0.296875 1.15625 -0.296875q0.796875 0 1.296875 0.40625q0.5 0.390625 0.640625 1.125l-0.796875 0.125q-0.109375 -0.484375 -0.40625 -0.71875q-0.28125 -0.25 -0.703125 -0.25q-0.609375 0 -1.0 0.4375q-0.390625 0.4375 -0.390625 1.40625q0 0.96875 0.375 1.421875q0.375 0.4375 0.984375 0.4375q0.46875 0 0.796875 -0.296875q0.328125 -0.296875 0.40625 -0.90625zm4.1776123 1.765625l0 -6.671875l0.875 0l0 3.3125l3.3125 -3.3125l1.203125 0l-2.796875 2.703125l2.921875 3.96875l-1.171875 0l-2.375 -3.375l-1.09375 1.0625l0 2.3125l-0.875 0zm9.456146 -1.5625l0.84375 0.109375q-0.1875 0.75 -0.734375 1.15625q-0.546875 0.40625 -1.390625 0.40625q-1.0625 0 -1.6875 -0.65625q-0.609375 -0.65625 -0.609375 -1.828125q0 -1.21875 0.625 -1.890625q0.625 -0.6875 1.625 -0.6875q0.984375 0 1.59375 0.671875q0.609375 0.65625 0.609375 1.859375q0 0.0625 0 0.21875l-3.609375 0q0.046875 0.796875 0.453125 1.21875q0.40625 0.421875 1.015625 0.421875q0.453125 0 0.765625 -0.234375q0.3125 -0.234375 0.5 -0.765625zm-2.6875 -1.328125l2.703125 0q-0.0625 -0.609375 -0.3125 -0.90625q-0.390625 -0.46875 -1.015625 -0.46875q-0.5625 0 -0.953125 0.375q-0.375 0.375 -0.421875 1.0zm4.531616 4.75l-0.09375 -0.765625q0.265625 0.078125 0.46875 0.078125q0.28125 0 0.4375 -0.09375q0.171875 -0.09375 0.265625 -0.265625q0.078125 -0.109375 0.25 -0.609375q0.03125 -0.0625 0.078125 -0.1875l-1.828125 -4.859375l0.875 0l1.015625 2.8125q0.1875 0.53125 0.34375 1.109375q0.140625 -0.5625 0.34375 -1.09375l1.03125 -2.828125l0.8125 0l-1.84375 4.921875q-0.28125 0.796875 -0.453125 1.09375q-0.21875 0.40625 -0.5 0.59375q-0.28125 0.203125 -0.671875 0.203125q-0.234375 0 -0.53125 -0.109375z" fill-rule="nonzero"/><path fill="#ffffff" d="m447.39468 160.93768l0 -6.671875l0.875 0l0 2.734375l3.46875 0l0 -2.734375l0.890625 0l0 6.671875l-0.890625 0l0 -3.140625l-3.46875 0l0 3.140625l-0.875 0zm9.752106 -0.59375q-0.453125 0.390625 -0.875 0.546875q-0.421875 0.15625 -0.90625 0.15625q-0.796875 0 -1.21875 -0.390625q-0.421875 -0.390625 -0.421875 -1.0q0 -0.34375 0.15625 -0.640625q0.15625 -0.296875 0.421875 -0.46875q0.265625 -0.1875 0.59375 -0.28125q0.234375 -0.0625 0.71875 -0.109375q1.0 -0.125 1.46875 -0.28125q0 -0.171875 0 -0.21875q0 -0.5 -0.234375 -0.703125q-0.3125 -0.28125 -0.921875 -0.28125q-0.578125 0 -0.859375 0.203125q-0.28125 0.203125 -0.40625 0.71875l-0.796875 -0.109375q0.109375 -0.515625 0.359375 -0.828125q0.25 -0.328125 0.71875 -0.5q0.46875 -0.171875 1.09375 -0.171875q0.625 0 1.0 0.15625q0.390625 0.140625 0.578125 0.359375q0.1875 0.21875 0.25 0.5625q0.046875 0.203125 0.046875 0.75l0 1.09375q0 1.140625 0.046875 1.453125q0.0625 0.296875 0.21875 0.578125l-0.859375 0q-0.125 -0.25 -0.171875 -0.59375zm-0.0625 -1.828125q-0.453125 0.171875 -1.34375 0.296875q-0.5 0.078125 -0.71875 0.171875q-0.203125 0.09375 -0.3125 0.265625q-0.109375 0.171875 -0.109375 0.390625q0 0.328125 0.234375 0.546875q0.25 0.21875 0.734375 0.21875q0.46875 0 0.828125 -0.203125q0.375 -0.21875 0.5625 -0.578125q0.125 -0.265625 0.125 -0.8125l0 -0.296875zm1.7659912 0.984375l0.8125 -0.140625q0.078125 0.5 0.390625 0.765625q0.3125 0.25 0.859375 0.25q0.578125 0 0.84375 -0.234375q0.28125 -0.234375 0.28125 -0.53125q0 -0.28125 -0.25 -0.4375q-0.171875 -0.109375 -0.84375 -0.28125q-0.890625 -0.234375 -1.25 -0.390625q-0.34375 -0.171875 -0.53125 -0.46875q-0.171875 -0.296875 -0.171875 -0.640625q0 -0.328125 0.140625 -0.59375q0.15625 -0.28125 0.40625 -0.46875q0.203125 -0.140625 0.53125 -0.234375q0.328125 -0.109375 0.703125 -0.109375q0.578125 0 1.0 0.171875q0.4375 0.15625 0.640625 0.4375q0.203125 0.28125 0.28125 0.75l-0.796875 0.109375q-0.0625 -0.375 -0.328125 -0.578125q-0.265625 -0.203125 -0.734375 -0.203125q-0.5625 0 -0.8125 0.1875q-0.234375 0.171875 -0.234375 0.4375q0 0.15625 0.09375 0.28125q0.109375 0.125 0.3125 0.21875q0.125 0.046875 0.734375 0.203125q0.859375 0.234375 1.203125 0.390625q0.34375 0.140625 0.53125 0.421875q0.203125 0.28125 0.203125 0.703125q0 0.40625 -0.234375 0.78125q-0.234375 0.359375 -0.6875 0.5625q-0.453125 0.1875 -1.015625 0.1875q-0.953125 0 -1.453125 -0.390625q-0.484375 -0.390625 -0.625 -1.15625zm4.9921875 1.4375l0 -6.671875l0.828125 0l0 2.390625q0.578125 -0.671875 1.453125 -0.671875q0.53125 0 0.921875 0.21875q0.40625 0.21875 0.578125 0.59375q0.171875 0.359375 0.171875 1.078125l0 3.0625l-0.828125 0l0 -3.0625q0 -0.625 -0.265625 -0.890625q-0.265625 -0.28125 -0.75 -0.28125q-0.375 0 -0.703125 0.1875q-0.3125 0.1875 -0.453125 0.515625q-0.125 0.3125 -0.125 0.890625l0 2.640625l-0.828125 0z" fill-rule="nonzero"/><path fill="#000000" fill-opacity="0.0" d="m457.5328 83.220474c0 3.5810242 0.01574707 5.37072 0.03149414 7.162056c0.01574707 1.791336 0.03149414 3.5843277 0.03149414 7.168648" fill-rule="evenodd"/><path stroke="#000000" stroke-width="1.0" stroke-linejoin="round" stroke-linecap="butt" d="m457.5328 83.220474c0 3.5810242 0.01574707 5.37072 0.03149414 7.1620636l0.00869751 1.1686859" fill-rule="evenodd"/><path fill="#000000" stroke="#000000" stroke-width="1.0" stroke-linecap="butt" d="m455.92126 91.5575l1.6689758 4.531784l1.6344604 -4.544342z" fill-rule="evenodd"/><path fill="#000000" fill-opacity="0.0" d="m457.5328 124.284775c0 3.580742 0.01574707 5.3701477 0.03149414 7.161484c0.01574707 1.791336 0.03149414 3.58461 0.03149414 7.16922" fill-rule="evenodd"/><path stroke="#000000" stroke-width="1.0" stroke-linejoin="round" stroke-linecap="butt" d="m457.5328 124.284775c0 3.580742 0.01574707 5.3701477 0.03149414 7.161484l0.00869751 1.1692657" fill-rule="evenodd"/><path fill="#000000" stroke="#000000" stroke-width="1.0" stroke-linecap="butt" d="m455.92126 132.62181l1.6689758 4.531784l1.634491 -4.544342z" fill-rule="evenodd"/><path fill="#dd7e6b" d="m21.68504 91.84392l0 0c0 -2.4614105 1.995369 -4.4567795 4.4567814 -4.4567795l69.16518 0c1.1820068 0 2.3156128 0.4695511 3.1514206 1.3053589c0.8358078 0.8358154 1.3053589 1.9694138 1.3053589 3.1514206l0 17.8266c0 2.4614105 -1.995369 4.4567795 -4.4567795 4.4567795l-69.16518 0c-2.4614124 0 -4.4567814 -1.995369 -4.4567814 -4.4567795z" fill-rule="evenodd"/><path stroke="#000000" stroke-width="1.0" stroke-linejoin="round" stroke-linecap="butt" d="m21.68504 91.84392l0 0c0 -2.4614105 1.995369 -4.4567795 4.4567814 -4.4567795l69.16518 0c1.1820068 0 2.3156128 0.4695511 3.1514206 1.3053589c0.8358078 0.8358154 1.3053589 1.9694138 1.3053589 3.1514206l0 17.8266c0 2.4614105 -1.995369 4.4567795 -4.4567795 4.4567795l-69.16518 0c-2.4614124 0 -4.4567814 -1.995369 -4.4567814 -4.4567795z" fill-rule="evenodd"/><path fill="#ffffff" d="m39.407265 98.71722l0 -6.671875l2.515625 0q0.671875 0 1.015625 0.0625q0.5 0.078125 0.828125 0.3125q0.328125 0.21875 0.53125 0.640625q0.203125 0.40625 0.203125 0.90625q0 0.859375 -0.546875 1.453125q-0.53125 0.578125 -1.953125 0.578125l-1.703125 0l0 2.71875l-0.890625 0zm0.890625 -3.5l1.71875 0q0.859375 0 1.21875 -0.3125q0.359375 -0.328125 0.359375 -0.90625q0 -0.421875 -0.21875 -0.71875q-0.203125 -0.296875 -0.546875 -0.390625q-0.234375 -0.0625 -0.828125 -0.0625l-1.703125 0l0 2.390625zm8.3936615 3.5l0 -0.703125q-0.5625 0.8125 -1.53125 0.8125q-0.421875 0 -0.796875 -0.15625q-0.375 -0.171875 -0.5625 -0.421875q-0.171875 -0.25 -0.25 -0.609375q-0.046875 -0.234375 -0.046875 -0.765625l0 -3.0l0.828125 0l0 2.6875q0 0.640625 0.046875 0.875q0.078125 0.3125 0.328125 0.5q0.25 0.1875 0.609375 0.1875q0.375 0 0.703125 -0.1875q0.328125 -0.1875 0.453125 -0.515625q0.140625 -0.328125 0.140625 -0.953125l0 -2.59375l0.8125 0l0 4.84375l-0.734375 0zm2.7816162 0l-0.765625 0l0 -6.671875l0.828125 0l0 2.375q0.515625 -0.65625 1.3125 -0.65625q0.453125 0 0.84375 0.1875q0.40625 0.171875 0.65625 0.5q0.265625 0.328125 0.40625 0.796875q0.15625 0.453125 0.15625 0.984375q0 1.234375 -0.625 1.921875q-0.609375 0.671875 -1.46875 0.671875q-0.859375 0 -1.34375 -0.71875l0 0.609375zm-0.015625 -2.453125q0 0.875 0.234375 1.25q0.390625 0.640625 1.046875 0.640625q0.546875 0 0.9375 -0.46875q0.390625 -0.46875 0.390625 -1.390625q0 -0.953125 -0.375 -1.390625q-0.375 -0.453125 -0.90625 -0.453125q-0.546875 0 -0.9375 0.46875q-0.390625 0.453125 -0.390625 1.34375zm4.422241 2.453125l0 -6.671875l0.828125 0l0 6.671875l-0.828125 0zm2.1036682 -5.734375l0 -0.9375l0.8125 0l0 0.9375l-0.8125 0zm0 5.734375l0 -4.84375l0.8125 0l0 4.84375l-0.8125 0zm5.213043 -1.765625l0.8125 0.09375q-0.125 0.84375 -0.671875 1.3125q-0.546875 0.46875 -1.34375 0.46875q-0.984375 0 -1.59375 -0.640625q-0.609375 -0.65625 -0.609375 -1.875q0 -0.78125 0.265625 -1.359375q0.265625 -0.59375 0.78125 -0.890625q0.53125 -0.296875 1.15625 -0.296875q0.796875 0 1.296875 0.40625q0.5 0.390625 0.640625 1.125l-0.796875 0.125q-0.109375 -0.484375 -0.40625 -0.71875q-0.28125 -0.25 -0.703125 -0.25q-0.609375 0 -1.0 0.4375q-0.390625 0.4375 -0.390625 1.40625q0 0.96875 0.375 1.421875q0.375 0.4375 0.984375 0.4375q0.46875 0 0.796875 -0.296875q0.328125 -0.296875 0.40625 -0.90625zm4.177597 1.765625l0 -6.671875l0.875 0l0 3.3125l3.3125 -3.3125l1.203125 0l-2.796875 2.703125l2.921875 3.96875l-1.171875 0l-2.375 -3.375l-1.09375 1.0625l0 2.3125l-0.875 0zm9.4561615 -1.5625l0.84375 0.109375q-0.1875 0.75 -0.734375 1.15625q-0.546875 0.40625 -1.390625 0.40625q-1.0625 0 -1.6875 -0.65625q-0.609375 -0.65625 -0.609375 -1.828125q0 -1.21875 0.625 -1.890625q0.625 -0.6875 1.625 -0.6875q0.984375 0 1.59375 0.671875q0.609375 0.65625 0.609375 1.859375q0 0.0625 0 0.21875l-3.609375 0q0.046875 0.796875 0.453125 1.21875q0.40625 0.421875 1.015625 0.421875q0.453125 0 0.765625 -0.234375q0.3125 -0.234375 0.5 -0.765625zm-2.6875 -1.328125l2.703125 0q-0.0625 -0.609375 -0.3125 -0.90625q-0.390625 -0.46875 -1.015625 -0.46875q-0.5625 0 -0.953125 0.375q-0.375 0.375 -0.421875 1.0zm4.531616 4.75l-0.09375 -0.765625q0.265625 0.078125 0.46875 0.078125q0.28125 0 0.4375 -0.09375q0.171875 -0.09375 0.265625 -0.265625q0.078125 -0.109375 0.25 -0.609375q0.03125 -0.0625 0.078125 -0.1875l-1.828125 -4.859375l0.875 0l1.015625 2.8125q0.1875 0.53125 0.34375 1.109375q0.140625 -0.5625 0.34375 -1.09375l1.03125 -2.828125l0.8125 0l-1.84375 4.921875q-0.28125 0.796875 -0.453125 1.09375q-0.21875 0.40625 -0.5 0.59375q-0.28125 0.203125 -0.671875 0.203125q-0.234375 0 -0.53125 -0.109375z" fill-rule="nonzero"/><path fill="#ffffff" d="m50.586273 109.71722l0 -6.671875l0.875 0l0 2.734375l3.46875 0l0 -2.734375l0.890625 0l0 6.671875l-0.890625 0l0 -3.140625l-3.46875 0l0 3.140625l-0.875 0zm9.752106 -0.59375q-0.453125 0.390625 -0.875 0.546875q-0.421875 0.15625 -0.90625 0.15625q-0.796875 0 -1.21875 -0.390625q-0.421875 -0.390625 -0.421875 -1.0q0 -0.34375 0.15625 -0.640625q0.15625 -0.296875 0.421875 -0.46875q0.265625 -0.1875 0.59375 -0.28125q0.234375 -0.0625 0.71875 -0.109375q1.0 -0.125 1.46875 -0.28125q0 -0.171875 0 -0.21875q0 -0.5 -0.234375 -0.703125q-0.3125 -0.28125 -0.921875 -0.28125q-0.578125 0 -0.859375 0.203125q-0.28125 0.203125 -0.40625 0.71875l-0.796875 -0.109375q0.109375 -0.515625 0.359375 -0.828125q0.25 -0.328125 0.71875 -0.5q0.46875 -0.171875 1.09375 -0.171875q0.625 0 1.0 0.15625q0.390625 0.140625 0.578125 0.359375q0.1875 0.21875 0.25 0.5625q0.046875 0.203125 0.046875 0.75l0 1.09375q0 1.140625 0.046875 1.453125q0.0625 0.296875 0.21875 0.578125l-0.859375 0q-0.125 -0.25 -0.171875 -0.59375zm-0.0625 -1.828125q-0.453125 0.171875 -1.34375 0.296875q-0.5 0.078125 -0.71875 0.171875q-0.203125 0.09375 -0.3125 0.265625q-0.109375 0.171875 -0.109375 0.390625q0 0.328125 0.234375 0.546875q0.25 0.21875 0.734375 0.21875q0.46875 0 0.828125 -0.203125q0.375 -0.21875 0.5625 -0.578125q0.125 -0.265625 0.125 -0.8125l0 -0.296875zm1.7659912 0.984375l0.8125 -0.140625q0.078125 0.5 0.390625 0.765625q0.3125 0.25 0.859375 0.25q0.578125 0 0.84375 -0.234375q0.28125 -0.234375 0.28125 -0.53125q0 -0.28125 -0.25 -0.4375q-0.171875 -0.109375 -0.84375 -0.28125q-0.890625 -0.234375 -1.25 -0.390625q-0.34375 -0.171875 -0.53125 -0.46875q-0.171875 -0.296875 -0.171875 -0.640625q0 -0.328125 0.140625 -0.59375q0.15625 -0.28125 0.40625 -0.46875q0.203125 -0.140625 0.53125 -0.234375q0.328125 -0.109375 0.703125 -0.109375q0.578125 0 1.0 0.171875q0.4375 0.15625 0.640625 0.4375q0.203125 0.28125 0.28125 0.75l-0.796875 0.109375q-0.0625 -0.375 -0.328125 -0.578125q-0.265625 -0.203125 -0.734375 -0.203125q-0.5625 0 -0.8125 0.1875q-0.234375 0.171875 -0.234375 0.4375q0 0.15625 0.09375 0.28125q0.109375 0.125 0.3125 0.21875q0.125 0.046875 0.734375 0.203125q0.859375 0.234375 1.203125 0.390625q0.34375 0.140625 0.53125 0.421875q0.203125 0.28125 0.203125 0.703125q0 0.40625 -0.234375 0.78125q-0.234375 0.359375 -0.6875 0.5625q-0.453125 0.1875 -1.015625 0.1875q-0.953125 0 -1.453125 -0.390625q-0.484375 -0.390625 -0.625 -1.15625zm4.9921875 1.4375l0 -6.671875l0.828125 0l0 2.390625q0.578125 -0.671875 1.453125 -0.671875q0.53125 0 0.921875 0.21875q0.40625 0.21875 0.578125 0.59375q0.171875 0.359375 0.171875 1.078125l0 3.0625l-0.828125 0l0 -3.0625q0 -0.625 -0.265625 -0.890625q-0.265625 -0.28125 -0.75 -0.28125q-0.375 0 -0.703125 0.1875q-0.3125 0.1875 -0.453125 0.515625q-0.125 0.3125 -0.125 0.890625l0 2.640625l-0.828125 0z" fill-rule="nonzero"/><path fill="#000000" fill-opacity="0.0" d="m126.74869 100.75836c-6.746277 0 -10.118538 0.01574707 -13.492554 0.03149414c-3.3740158 0.01574707 -6.7497864 0.03149414 -13.499573 0.03149414" fill-rule="evenodd"/><path stroke="#000000" stroke-width="1.0" stroke-linejoin="round" stroke-linecap="butt" d="m126.74869 100.75836c-6.746277 0 -10.118538 0.01574707 -13.492554 0.03149414c-3.3740158 0.01574707 -6.7497864 0.03149414 -13.499573 0.03149414" fill-rule="evenodd"/><path fill="#93c47d" d="m219.15092 239.88846l78.07872 0l0 30.204712l-78.07872 0z" fill-rule="evenodd"/><path stroke="#000000" stroke-width="1.0" stroke-linejoin="round" stroke-linecap="butt" d="m219.15092 239.88846l78.07872 0l0 30.204712l-78.07872 0z" fill-rule="evenodd"/><path fill="#000000" d="m239.32849 260.0708l0 -10.48436l2.078125 0l2.484375 7.4218597q0.34375 1.03125 0.5 1.546875q0.1875 -0.5625 0.5625 -1.671875l2.515625 -7.2968597l1.859375 0l0 10.48436l-1.328125 0l0 -8.781235l-3.046875 8.781235l-1.265625 0l-3.03125 -8.937485l0 8.937485l-1.328125 0zm17.036896 -0.9375q-0.71875 0.609375 -1.375 0.859375q-0.65625 0.25 -1.421875 0.25q-1.25 0 -1.921875 -0.609375q-0.671875 -0.609375 -0.671875 -1.5625q0 -0.5625 0.25 -1.015625q0.25 -0.46875 0.65625 -0.75q0.421875 -0.28125 0.9375 -0.42185974q0.375 -0.09375 1.140625 -0.1875q1.5625 -0.1875 2.296875 -0.453125q0.015625 -0.265625 0.015625 -0.328125q0 -0.796875 -0.375 -1.109375q-0.484375 -0.4375 -1.453125 -0.4375q-0.921875 0 -1.359375 0.328125q-0.421875 0.3125 -0.625 1.109375l-1.265625 -0.171875q0.171875 -0.796875 0.5625 -1.296875q0.390625 -0.5 1.140625 -0.765625q0.75 -0.265625 1.71875 -0.265625q0.984375 0 1.59375 0.234375q0.609375 0.21875 0.890625 0.5625q0.28125 0.34375 0.40625 0.875q0.0625 0.328125 0.0625 1.1875l0 1.7187347q0 1.796875 0.078125 2.28125q0.078125 0.46875 0.328125 0.90625l-1.34375 0q-0.203125 -0.40625 -0.265625 -0.9375zm-0.109375 -2.875q-0.703125 0.28125 -2.09375 0.484375q-0.796875 0.109375 -1.125 0.265625q-0.328125 0.140625 -0.515625 0.421875q-0.171875 0.265625 -0.171875 0.59375q0 0.515625 0.390625 0.859375q0.390625 0.34375 1.140625 0.34375q0.734375 0 1.3125 -0.3125q0.59375 -0.328125 0.859375 -0.890625q0.203125 -0.4375 0.203125 -1.296875l0 -0.46875zm6.119873 2.65625l0.1875 1.140625q-0.546875 0.109375 -0.984375 0.109375q-0.6875 0 -1.078125 -0.21875q-0.390625 -0.21875 -0.546875 -0.578125q-0.15625 -0.359375 -0.15625 -1.515625l0 -4.3749847l-0.953125 0l0 -1.0l0.953125 0l0 -1.890625l1.28125 -0.765625l0 2.65625l1.296875 0l0 1.0l-1.296875 0l0 4.4374847q0 0.546875 0.0625 0.71875q0.078125 0.15625 0.21875 0.25q0.15625 0.078125 0.453125 0.078125q0.203125 0 0.5625 -0.046875zm6.2125854 -1.625l1.265625 0.15625q-0.203125 1.3125 -1.0625 2.0625q-0.84375 0.734375 -2.09375 0.734375q-1.5625 0 -2.515625 -1.015625q-0.9375 -1.03125 -0.9375 -2.921875q0 -1.2343597 0.40625 -2.1562347q0.40625 -0.921875 1.234375 -1.375q0.84375 -0.46875 1.8125 -0.46875q1.25 0 2.03125 0.625q0.78125 0.625 1.015625 1.765625l-1.265625 0.203125q-0.171875 -0.765625 -0.625 -1.15625q-0.453125 -0.390625 -1.09375 -0.390625q-0.984375 0 -1.59375 0.703125q-0.609375 0.703125 -0.609375 2.2031097q0 1.53125 0.578125 2.234375q0.59375 0.6875 1.546875 0.6875q0.75 0 1.265625 -0.453125q0.515625 -0.46875 0.640625 -1.4375zm2.375 2.78125l0 -10.48436l1.28125 0l0 3.75q0.90625 -1.03125 2.28125 -1.03125q0.84375 0 1.46875 0.328125q0.625 0.328125 0.890625 0.921875q0.265625 0.578125 0.265625 1.703125l0 4.8124847l-1.28125 0l0 -4.8124847q0 -0.96875 -0.421875 -1.40625q-0.421875 -0.4375 -1.1875 -0.4375q-0.578125 0 -1.078125 0.296875q-0.5 0.296875 -0.71875 0.8125q-0.21875 0.5 -0.21875 1.390625l0 4.1562347l-1.28125 0z" fill-rule="nonzero"/><path fill="#000000" fill-opacity="0.0" d="m60.72441 114.1273c0 70.42519 79.2126 140.8504 158.4252 140.8504" fill-rule="evenodd"/><path stroke="#000000" stroke-width="1.0" stroke-linejoin="round" stroke-linecap="butt" d="m60.72441 114.1273c0 35.212593 19.803146 70.42519 49.507874 96.83465c14.852364 13.204727 32.180115 24.208664 50.745575 31.911407c9.282715 3.8513794 18.874878 6.877472 28.621735 8.940704c4.8734283 1.0316162 9.785538 1.822525 14.71698 2.3555145c2.465744 0.26651 4.9362946 0.46855164 7.4092712 0.6039429c0.30911255 0.016921997 0.6182709 0.032821655 0.927475 0.04763794l0.49778748 0.022201538" fill-rule="evenodd"/><path fill="#000000" stroke="#000000" stroke-width="1.0" stroke-linecap="butt" d="m213.11414 256.4947l4.573929 -1.5497284l-4.4999695 -1.7529144z" fill-rule="evenodd"/><path fill="#000000" fill-opacity="0.0" d="m457.5328 165.34776c0 44.81891 -80.15747 89.6378 -160.31497 89.6378" fill-rule="evenodd"/><path stroke="#000000" stroke-width="1.0" stroke-linejoin="round" stroke-linecap="butt" d="m457.5328 165.34776c0 22.409454 -20.039368 44.81891 -50.09842 61.62599c-15.029541 8.403549 -32.563995 15.406494 -51.35089 20.308563c-9.393463 2.4510345 -19.100037 4.3768463 -28.963165 5.6898956c-4.931549 0.65652466 -9.902252 1.1598663 -14.892517 1.4990845c-2.4951477 0.16958618 -4.995178 0.29815674 -7.49765 0.38432312c-0.31280518 0.010772705 -0.62564087 0.020874023 -0.9385376 0.030334473l-0.5743408 0.016113281" fill-rule="evenodd"/><path fill="#000000" stroke="#000000" stroke-width="1.0" stroke-linecap="butt" d="m303.19427 253.25049l-4.514679 1.7147369l4.560669 1.5883942z" fill-rule="evenodd"/><path fill="#000000" fill-opacity="0.0" d="m308.3891 114.12854c0 21.739288 -15.881897 32.60849 -31.763763 43.478577c-15.881897 10.870071 -31.763794 21.741028 -31.763794 43.482056" fill-rule="evenodd"/><path stroke="#000000" stroke-width="1.0" stroke-linejoin="round" stroke-linecap="butt" d="m308.3891 114.12854c0 21.739288 -15.881866 32.608505 -31.763763 43.478577c-7.9409485 5.4350433 -15.881897 10.8703 -21.8376 17.664413c-2.9778595 3.3970642 -5.4594116 7.1338654 -7.1964874 11.380188c-0.86854553 2.1231537 -1.5509796 4.373703 -2.0162659 6.772888c-0.058151245 0.29988098 -0.11291504 0.6021118 -0.1642456 0.90667725c-0.025650024 0.15229797 -0.050445557 0.30517578 -0.07437134 0.45866394l-0.047042847 0.3144989" fill-rule="evenodd"/><path fill="#000000" stroke="#000000" stroke-width="1.0" stroke-linecap="butt" d="m243.6418 194.98668l1.3239746 4.6443176l1.9710846 -4.408783z" fill-rule="evenodd"/></g></svg>